<svg xmlns="http://www.w3.org/2000/svg" width="1024" height="1024" viewBox="0 0 1024 1024">
<g>
<path d="M 1017.65 690.17 C1018.57,691.18 1020.37,692.00 1021.65,692.00 L 1024.00 692.00 L 1024.00 1024.00 L 0.00 1024.00 L 0.00 0.00 L 694.50 0.00 C366.95,0.00 365.00,0.01 365.00,1.98 C365.00,3.06 366.17,4.72 367.59,5.65 C369.02,6.59 370.58,8.41 371.08,9.70 C371.57,10.99 372.76,12.35 373.73,12.72 C375.63,13.43 384.00,21.41 384.00,22.50 C384.00,23.57 392.75,32.00 393.85,32.00 C394.41,32.00 395.17,33.01 395.53,34.25 C396.19,36.48 397.90,38.39 408.32,48.61 C410.07,50.33 412.17,51.96 413.00,52.24 C413.83,52.52 415.11,54.83 415.86,57.37 C416.82,60.64 418.00,62.37 419.86,63.25 C421.31,63.94 422.91,65.44 423.42,66.59 C423.92,67.73 425.27,69.08 426.41,69.58 C427.56,70.09 429.07,71.71 429.77,73.19 C430.48,74.67 431.92,76.16 432.98,76.49 C434.03,76.83 435.17,77.97 435.51,79.02 C435.84,80.08 437.33,81.52 438.81,82.23 C440.29,82.93 441.91,84.44 442.42,85.59 C442.92,86.73 444.26,88.08 445.40,88.58 C446.53,89.09 447.99,90.56 448.63,91.86 C449.27,93.15 450.84,94.73 452.12,95.38 C453.41,96.02 454.98,97.57 455.61,98.84 C456.24,100.10 457.71,101.81 458.88,102.63 C460.04,103.44 461.00,104.57 461.00,105.14 C461.00,106.50 469.03,114.44 471.27,115.29 C472.25,115.65 473.35,116.75 473.73,117.73 C474.61,120.03 487.97,133.39 490.27,134.27 C491.25,134.65 492.35,135.75 492.71,136.73 C493.58,139.02 500.98,146.42 503.27,147.29 C504.25,147.65 505.34,148.75 505.69,149.73 C506.05,150.70 508.67,153.75 511.52,156.50 C514.38,159.26 517.03,162.52 517.43,163.76 C517.82,165.01 519.43,166.69 521.00,167.50 C522.57,168.31 524.14,169.86 524.48,170.94 C524.82,172.02 526.01,173.18 527.11,173.54 C528.22,173.89 529.61,175.25 530.21,176.57 C530.81,177.88 532.11,179.22 533.10,179.53 C534.09,179.85 536.00,182.51 537.35,185.45 C538.79,188.59 540.65,191.07 541.85,191.45 C542.98,191.81 544.18,193.01 544.54,194.11 C544.89,195.22 546.29,196.63 547.66,197.26 C549.03,197.88 550.79,199.62 551.56,201.12 C552.34,202.63 553.86,204.14 554.94,204.48 C556.02,204.82 557.18,206.01 557.54,207.11 C557.89,208.22 559.25,209.61 560.57,210.21 C561.88,210.81 563.23,212.16 563.57,213.21 C563.90,214.26 565.29,215.63 566.66,216.26 C568.03,216.88 569.79,218.62 570.56,220.12 C571.34,221.63 572.83,223.13 573.88,223.46 C574.93,223.79 576.32,225.37 576.98,226.96 C577.64,228.55 578.82,230.10 579.61,230.40 C580.39,230.70 581.47,232.10 582.00,233.50 C582.53,234.90 583.76,236.35 584.73,236.72 C587.02,237.58 594.42,244.98 595.29,247.27 C595.65,248.25 596.75,249.35 597.73,249.73 C600.03,250.61 613.39,263.97 614.27,266.27 C614.65,267.25 615.75,268.35 616.73,268.71 C619.02,269.58 626.42,276.98 627.29,279.27 C627.65,280.25 628.75,281.35 629.73,281.72 C632.08,282.60 645.00,295.69 645.00,297.18 C645.00,298.84 648.06,302.00 649.68,302.00 C650.43,302.00 651.55,303.12 652.17,304.48 C652.79,305.85 654.12,307.22 655.13,307.54 C656.13,307.86 657.52,309.33 658.23,310.81 C658.93,312.29 660.44,313.91 661.59,314.42 C662.73,314.92 664.08,316.27 664.58,317.41 C665.09,318.56 666.69,320.06 668.14,320.75 C670.00,321.63 671.18,323.36 672.14,326.63 C672.89,329.17 674.17,331.48 675.00,331.76 C676.30,332.20 678.88,334.48 684.18,339.84 C684.90,340.58 686.96,342.57 688.75,344.28 C690.54,345.98 692.00,347.94 692.00,348.63 C692.00,349.32 693.22,350.48 694.72,351.20 C696.22,351.91 697.96,353.54 698.60,354.82 C699.23,356.10 700.71,357.81 701.88,358.63 C703.04,359.44 704.00,360.57 704.00,361.14 C704.00,362.50 712.03,370.44 714.27,371.29 C715.25,371.65 716.35,372.75 716.71,373.73 C717.43,375.63 725.41,384.00 726.50,384.00 C727.36,384.00 736.00,392.64 736.00,393.50 C736.00,394.59 744.37,402.57 746.27,403.29 C747.25,403.65 748.34,404.75 748.69,405.73 C749.05,406.70 751.74,409.81 754.67,412.64 C757.60,415.47 760.00,418.14 760.00,418.58 C760.00,419.71 764.17,424.00 765.27,424.00 C766.44,424.00 772.10,429.85 773.50,432.50 C774.08,433.60 775.78,435.09 777.28,435.80 C778.78,436.52 780.00,437.75 780.00,438.52 C780.00,439.30 781.35,440.93 782.99,442.15 C784.63,443.37 786.23,445.16 786.54,446.13 C786.85,447.10 788.02,448.19 789.15,448.55 C790.35,448.93 792.21,451.41 793.65,454.55 C795.00,457.49 796.91,460.15 797.90,460.47 C798.89,460.78 800.21,462.15 800.83,463.52 C801.45,464.88 802.49,466.00 803.15,466.00 C804.88,466.00 808.00,469.07 808.00,470.77 C808.00,472.42 814.50,478.71 817.03,479.51 C817.95,479.80 819.21,481.15 819.83,482.52 C820.45,483.88 821.49,485.00 822.15,485.00 C823.88,485.00 827.00,488.07 827.00,489.76 C827.00,490.56 829.40,493.53 832.33,496.36 C835.26,499.19 837.95,502.30 838.31,503.27 C838.66,504.25 839.75,505.33 840.73,505.69 C841.70,506.04 844.97,508.88 848.00,512.00 C851.03,515.12 854.30,517.96 855.27,518.31 C856.25,518.67 857.33,519.75 857.69,520.73 C858.04,521.70 860.88,524.97 864.00,528.00 C867.12,531.03 869.96,534.30 870.31,535.27 C870.67,536.25 871.75,537.35 872.73,537.72 C875.08,538.60 888.00,551.69 888.00,553.18 C888.00,554.84 891.06,558.00 892.68,558.00 C893.43,558.00 894.55,559.12 895.17,560.48 C895.79,561.85 897.12,563.22 898.13,563.54 C899.13,563.86 900.53,565.32 901.23,566.80 C901.94,568.27 903.73,570.06 905.20,570.77 C906.68,571.47 908.16,572.92 908.49,573.98 C908.83,575.03 909.97,576.17 911.02,576.51 C912.08,576.84 913.52,578.33 914.23,579.81 C914.93,581.29 916.43,582.91 917.55,583.40 C918.68,583.90 920.43,586.30 921.43,588.73 C922.48,591.27 924.28,593.62 925.63,594.24 C926.93,594.84 928.00,595.67 928.00,596.10 C928.00,596.52 930.53,599.32 933.62,602.32 C936.71,605.32 939.74,608.30 940.37,608.96 C940.99,609.61 942.92,611.58 944.65,613.32 C946.38,615.07 948.10,617.51 948.47,618.75 C948.83,619.99 949.59,621.00 950.15,621.00 C951.25,621.00 960.00,629.43 960.00,630.50 C960.00,630.86 961.99,633.15 964.42,635.58 C966.85,638.01 969.14,640.00 969.50,640.00 C970.59,640.00 978.57,648.37 979.29,650.27 C979.65,651.25 980.75,652.35 981.73,652.71 C983.63,653.43 992.00,661.41 992.00,662.50 C992.00,662.86 993.99,665.15 996.42,667.58 C998.85,670.01 1001.14,672.00 1001.50,672.00 C1002.59,672.00 1011.00,680.76 1011.00,681.90 C1011.00,682.48 1012.12,683.69 1013.50,684.59 C1014.88,685.49 1016.00,686.71 1016.00,687.29 C1016.00,687.87 1016.74,689.17 1017.65,690.17 ZM 365.37 450.64 C366.88,451.94 368.91,453.00 369.90,453.00 C373.61,453.00 383.90,446.65 394.85,437.61 C401.10,432.45 412.33,423.79 419.82,418.36 C435.39,407.09 444.54,398.69 445.52,394.77 C446.06,392.62 444.74,389.15 439.04,377.80 C435.10,369.96 431.35,363.20 430.69,362.79 C428.01,361.09 422.44,362.33 403.20,368.91 C374.68,378.66 366.06,383.68 361.83,393.00 C359.97,397.11 359.85,398.71 360.46,411.50 C362.12,446.22 362.35,448.04 365.37,450.64 ZM 605.50 383.06 C612.77,384.96 627.48,385.65 628.42,384.13 C628.71,383.66 632.23,383.05 636.23,382.78 C643.60,382.28 658.00,378.56 658.00,377.15 C658.00,376.72 660.36,375.77 663.24,375.03 C669.06,373.54 686.00,365.23 686.00,363.87 C686.00,362.64 685.73,362.72 680.31,365.44 C675.87,367.67 665.91,370.91 652.20,374.58 C644.82,376.56 623.11,376.48 615.97,374.44 C612.96,373.59 608.25,372.47 605.50,371.96 C602.75,371.46 600.05,370.47 599.50,369.77 C598.95,369.07 596.92,367.76 595.00,366.86 C588.49,363.81 574.75,353.53 569.12,347.50 C563.32,341.27 552.61,330.67 549.36,327.93 C548.34,327.06 543.72,322.00 539.10,316.68 C534.48,311.35 530.13,307.00 529.43,307.00 C528.73,307.00 527.21,305.46 526.05,303.58 C522.56,297.94 509.00,283.50 507.19,283.50 C506.25,283.50 503.84,281.01 501.75,277.88 C499.69,274.78 494.68,269.27 490.60,265.63 C483.53,259.30 481.00,257.81 481.00,260.00 C481.00,262.61 487.42,274.05 491.46,278.65 C494.77,282.42 495.45,283.67 493.99,283.29 C492.90,283.00 492.00,283.26 492.00,283.85 C492.00,286.22 502.10,301.86 505.78,305.18 C509.14,308.21 509.46,308.86 508.09,309.75 C506.94,310.50 506.78,311.20 507.50,312.27 C514.15,322.08 517.81,326.53 522.48,330.52 C526.42,333.89 527.74,335.61 527.04,336.45 C525.41,338.42 537.11,350.35 546.13,355.90 C551.99,359.51 553.61,360.94 552.37,361.41 C550.89,361.98 550.98,362.36 553.10,364.72 C555.03,366.86 554.51,366.66 550.50,363.72 C542.84,358.09 537.05,355.31 528.40,353.10 C510.55,348.55 507.03,350.36 516.53,359.21 C527.12,369.06 530.27,370.39 549.00,372.89 C553.67,373.51 558.51,374.29 559.75,374.63 C562.93,375.48 562.66,373.13 559.25,370.26 C557.09,368.44 557.79,368.64 562.50,371.16 C574.00,377.32 575.54,377.97 582.50,379.55 C586.35,380.42 591.22,381.64 593.33,382.25 C596.04,383.05 597.35,383.06 597.83,382.30 C598.29,381.56 600.67,381.79 605.50,383.06 ZM 362.99 361.23 C367.88,366.11 370.14,366.10 389.50,361.10 C416.78,354.05 420.20,352.68 423.62,347.46 C425.48,344.62 425.44,344.32 420.51,326.50 C416.84,313.25 416.29,313.03 386.45,312.73 L 362.86 312.50 L 360.03 315.65 C359.42,316.33 358.93,316.82 358.55,317.37 C357.10,319.51 357.28,322.76 358.40,342.76 C358.48,344.09 358.56,345.49 358.64,346.98 L 359.22 357.46 ZM 656.00 566.06 C660.41,567.41 670.90,567.07 674.78,565.45 C679.51,563.47 683.60,559.60 686.33,554.50 C688.32,550.78 688.49,548.76 688.82,525.75 C689.16,502.26 689.09,501.00 687.34,500.99 C686.33,500.99 683.14,500.70 680.25,500.35 C675.86,499.82 675.00,499.98 675.00,501.31 C675.00,502.73 674.64,502.75 671.53,501.45 C662.65,497.74 651.03,501.06 645.50,508.91 C642.89,512.61 642.46,514.20 642.14,521.23 C641.72,530.54 642.95,535.60 646.74,540.10 C652.03,546.39 662.74,548.81 670.65,545.50 C670.88,545.40 671.10,545.31 671.31,545.23 C673.35,544.37 674.27,543.98 674.68,544.28 C675.01,544.53 675.01,545.23 675.00,546.49 C675.00,546.64 675.00,546.81 675.00,546.98 C675.00,548.86 673.93,551.16 672.13,553.18 C669.59,556.02 668.65,556.40 663.85,556.44 C660.53,556.48 656.78,555.75 654.10,554.54 L 649.76 552.59 L 646.85 555.84 C645.25,557.63 644.21,559.53 644.54,560.06 C645.25,561.21 652.45,564.98 656.00,566.06 ZM 382.03 301.86 C389.44,302.33 397.88,302.78 400.80,302.86 C406.60,303.01 411.54,301.06 412.40,298.26 C412.70,297.29 411.86,291.77 410.52,286.00 C406.93,270.47 406.03,269.90 380.00,266.51 C365.30,264.60 359.65,264.61 355.85,266.58 C353.18,267.96 352.88,268.54 353.37,271.33 C353.68,273.07 354.24,278.02 354.61,282.32 C355.88,296.98 360.83,300.51 382.03,301.86 ZM 550.20 546.16 C572.22,554.00 590.97,528.44 577.48,508.97 C573.42,503.12 566.68,500.00 558.07,500.00 C549.65,500.00 544.99,501.97 540.03,507.62 C533.42,515.15 532.11,524.45 536.38,533.50 C539.45,540.00 543.63,543.82 550.20,546.16 ZM 698.00 476.00 L 698.00 547.09 L 704.75 546.80 L 711.50 546.50 L 711.78 530.57 C711.93,521.81 712.50,514.10 713.06,513.43 C715.85,510.06 724.98,511.47 726.84,515.55 C727.55,517.10 728.00,523.72 728.00,532.55 L 728.00 547.00 L 741.12 547.00 L 740.81 528.57 C740.47,508.13 740.17,507.12 733.01,502.25 C729.00,499.52 719.56,499.14 714.95,501.53 L 712.00 503.05 L 712.00 476.00 ZM 271.50 547.29 C272.60,547.58 274.40,547.63 275.50,547.42 C276.60,547.20 278.74,547.02 280.25,547.01 L 283.00 547.00 L 282.98 529.75 C282.95,509.08 281.93,505.58 274.83,501.85 C269.47,499.03 260.04,498.80 252.00,501.28 C243.42,503.93 243.11,504.29 245.66,508.74 C246.47,510.15 246.91,511.05 247.62,511.58 C248.87,512.50 250.96,512.27 257.35,511.57 C257.90,511.51 258.49,511.45 259.11,511.38 C264.89,510.76 269.00,511.97 269.00,514.30 C269.00,515.18 266.37,515.52 259.58,515.51 C248.58,515.50 245.94,516.79 242.25,524.02 C237.91,532.51 240.20,540.84 247.96,544.75 C252.96,547.27 261.22,547.77 265.52,545.81 C267.38,544.96 268.34,544.93 268.82,545.69 C269.19,546.28 270.40,547.00 271.50,547.29 ZM 484.62 543.88 C485.24,546.95 485.35,547.00 491.12,547.00 L 497.00 547.00 L 497.00 531.45 C497.00,516.28 497.06,515.85 499.45,513.45 C503.33,509.58 510.13,510.42 512.54,515.08 C513.62,517.17 514.00,521.65 514.00,532.45 L 514.00 547.00 L 527.00 547.00 L 526.98 529.75 C526.97,513.76 526.80,512.21 524.73,508.50 C520.66,501.22 509.23,497.76 501.86,501.57 C500.18,502.44 498.52,502.85 498.16,502.49 C497.80,502.13 497.35,496.03 497.17,488.92 L 496.84 476.00 L 491.99 476.00 C491.73,476.00 491.47,476.00 491.22,476.00 C489.22,475.99 487.78,475.98 486.73,476.62 C483.99,478.31 483.99,484.45 484.00,506.66 C484.00,507.72 484.00,508.81 484.00,509.95 C484.00,526.89 484.28,542.16 484.62,543.88 ZM 355.45 545.59 C359.63,547.41 369.43,547.35 373.05,545.47 C375.69,544.11 376.00,544.11 376.00,545.47 C376.00,546.70 377.40,547.00 383.11,547.00 L 390.22 547.00 L 389.82 529.25 C389.36,509.20 388.68,506.83 382.27,502.85 C379.01,500.81 377.23,500.50 369.00,500.50 C361.30,500.50 358.59,500.92 354.70,502.72 L 349.90 504.93 L 352.20 509.01 C354.18,512.52 354.85,513.01 357.00,512.48 C358.38,512.14 362.26,511.62 365.64,511.32 C370.98,510.85 372.06,511.06 373.89,512.89 C376.82,515.82 376.62,517.19 373.43,515.98 C372.02,515.44 368.04,515.00 364.58,515.00 C353.92,515.00 347.87,520.67 347.19,531.31 C346.83,537.04 347.04,537.90 349.60,540.93 C351.14,542.77 353.77,544.86 355.45,545.59 ZM 437.00 490.06 L 437.00 547.00 L 451.00 547.00 L 451.00 490.00 L 462.42 490.00 C469.00,490.00 473.97,489.58 474.17,489.02 C474.35,488.48 474.34,485.27 474.15,481.89 L 473.81 475.75 L 469.27 476.38 C466.77,476.72 453.06,477.00 438.81,477.00 L 412.90 477.00 L 413.20 483.25 L 413.50 489.50 ZM 464.21 382.66 C467.95,384.74 472.92,384.16 483.50,380.43 C489.00,378.48 497.77,375.84 503.00,374.54 C515.03,371.56 516.00,371.16 516.00,369.08 C516.00,366.35 498.69,351.29 493.91,349.86 C489.19,348.44 469.61,349.95 460.13,352.46 C454.27,354.01 450.00,357.28 450.00,360.21 C450.00,364.49 460.03,380.34 464.21,382.66 ZM 598.61 544.64 C603.13,547.37 611.00,547.79 615.00,545.50 C618.22,543.66 619.00,543.66 619.00,545.50 C619.00,546.69 620.44,547.00 626.00,547.00 L 633.00 547.00 L 633.00 500.00 L 619.00 500.00 L 619.00 515.69 C619.00,530.41 618.87,531.51 616.83,533.69 C613.77,536.94 609.55,536.71 605.92,533.08 L 603.00 530.15 L 603.00 500.00 L 590.00 500.00 L 590.01 517.25 C590.01,533.59 590.13,534.70 592.36,538.39 C593.66,540.53 596.47,543.34 598.61,544.64 ZM 447.12 345.01 C448.98,345.45 451.62,345.64 453.00,345.43 C461.53,344.10 473.37,343.00 479.02,343.00 C489.98,343.00 490.39,341.02 482.04,328.23 C478.15,322.25 474.95,318.50 472.79,317.36 C468.91,315.32 453.58,313.09 443.08,313.04 C435.20,313.00 432.00,314.46 432.00,318.11 C432.00,321.69 439.03,339.48 441.36,341.81 C442.67,343.13 445.27,344.56 447.12,345.01 ZM 795.76 547.00 C804.65,549.68 816.46,546.57 820.11,540.59 C822.48,536.70 822.57,529.27 820.31,524.53 C818.46,520.64 812.32,517.00 807.62,517.00 C804.18,517.00 801.00,515.36 801.00,513.57 C801.00,510.59 807.68,510.69 811.17,513.71 C813.25,515.52 815.97,514.26 818.93,510.10 C821.66,506.26 821.54,504.41 818.35,501.45 C816.10,499.36 814.73,499.00 809.10,499.01 C795.51,499.02 788.12,503.68 787.25,512.80 C786.97,515.65 787.26,519.22 787.89,520.74 C789.48,524.56 795.05,528.10 801.24,529.23 C804.11,529.75 807.29,530.62 808.31,531.17 C810.04,532.09 810.06,532.28 808.51,533.99 C805.79,537.00 802.43,537.24 796.83,534.83 L 791.68 532.62 L 788.84 536.02 C787.28,537.89 786.00,539.97 786.00,540.63 C786.00,542.03 791.78,545.81 795.76,547.00 ZM 200.47 546.77 C201.45,549.34 215.41,547.59 220.91,544.21 C228.64,539.46 228.84,538.55 229.13,505.53 L 229.39 476.56 L 226.95 475.88 C222.89,474.75 216.48,474.92 215.20,476.20 C214.33,477.07 214.00,484.43 214.00,503.05 L 214.00 504.26 C214.00,523.48 214.00,529.36 211.18,531.48 C209.87,532.46 207.97,532.64 205.19,532.96 L 200.50 533.50 L 200.20 539.39 C200.03,542.63 200.15,545.95 200.47,546.77 ZM 393.50 261.43 C395.64,262.32 400.66,261.94 401.80,260.80 C403.49,259.11 403.27,254.50 401.18,247.50 C398.91,239.91 395.66,237.49 386.21,236.33 C371.12,234.47 349.79,236.14 347.09,239.39 C346.40,240.23 346.77,242.61 348.29,247.05 C351.31,255.87 353.29,256.75 375.38,259.15 C384.80,260.17 392.95,261.20 393.50,261.43 ZM 309.08 544.75 C309.85,546.73 310.66,547.00 315.87,547.00 C319.66,547.00 321.97,546.55 322.30,545.75 C330.75,525.24 340.00,501.54 340.00,500.40 C340.00,499.20 338.72,498.97 333.41,499.20 L 326.82 499.50 L 322.43 511.00 C316.19,527.35 316.00,527.75 315.02,525.98 C314.57,525.17 312.55,520.00 310.54,514.50 C308.53,509.00 306.40,503.26 305.82,501.75 C304.82,499.15 304.41,499.00 298.44,499.00 C294.96,499.00 291.86,499.42 291.54,499.93 C291.23,500.44 291.64,502.36 292.47,504.18 C293.80,507.11 306.80,538.86 309.08,544.75 ZM 461.50 308.46 C463.50,309.31 467.32,308.46 468.25,306.97 C468.95,305.86 467.89,302.73 464.35,295.47 C458.54,283.54 457.13,282.54 439.71,278.01 C419.77,272.83 418.60,273.46 422.55,287.18 C424.02,292.31 425.37,297.01 425.54,297.64 C425.71,298.27 427.45,300.01 429.41,301.50 C432.44,303.81 434.98,304.49 446.73,306.12 C454.30,307.18 460.95,308.23 461.50,308.46 ZM 763.18 545.32 C767.12,547.26 775.98,547.52 778.15,545.75 C779.38,544.75 779.51,543.65 778.79,540.25 C777.99,536.51 777.55,536.00 775.16,536.00 C773.67,536.00 771.44,535.30 770.22,534.44 C768.16,533.00 768.00,532.12 768.00,522.01 L 768.00 511.13 L 771.25 510.81 C774.41,510.51 774.51,510.36 774.80,505.32 L 775.10 500.13 L 768.50 499.50 L 767.90 485.73 L 762.02 486.26 C758.78,486.56 755.66,487.10 755.07,487.46 C754.48,487.82 754.00,490.79 754.00,494.06 L 754.00 500.00 L 746.90 500.00 L 747.20 505.25 C747.49,510.33 747.60,510.51 750.63,510.80 L 753.77 511.11 L 754.17 523.93 C754.54,535.94 754.73,536.96 757.21,540.21 C758.67,542.12 761.35,544.42 763.18,545.32 ZM 445.00 273.98 C451.41,276.15 453.64,276.39 454.51,274.99 C455.29,273.72 449.40,258.17 447.16,255.60 C443.55,251.45 422.16,243.00 415.28,243.00 C410.19,243.00 410.14,243.25 413.10,253.34 C415.96,263.12 419.11,266.01 430.63,269.46 C435.51,270.92 441.98,272.95 445.00,273.98 ZM 339.71 230.25 L 342.50 233.19 L 353.50 232.37 C359.55,231.92 370.80,231.51 378.50,231.47 C379.88,231.46 381.14,231.46 382.31,231.45 C391.42,231.42 394.20,231.41 394.83,230.24 C395.11,229.72 394.97,228.98 394.78,227.91 C394.72,227.60 394.66,227.26 394.60,226.90 C393.67,221.10 391.35,217.09 388.20,215.85 C381.53,213.23 354.64,217.62 343.75,223.10 C336.73,226.64 336.56,226.93 339.71,230.25 ZM 437.50 245.14 C442.21,247.28 442.67,247.34 443.54,245.94 C444.23,244.82 440.58,233.98 438.30,230.40 C434.58,224.55 406.19,215.14 402.72,218.61 C401.89,219.44 405.87,230.06 407.88,232.35 C410.08,234.88 412.91,236.23 424.00,240.06 C429.23,241.86 435.30,244.15 437.50,245.14 ZM 528.00 350.13 C529.97,351.23 532.50,350.78 532.50,349.33 C532.50,347.68 520.14,333.79 516.00,330.79 C511.60,327.60 494.10,321.00 490.04,321.00 C488.35,321.00 487.00,321.53 487.00,322.19 C487.00,324.24 497.18,338.99 499.90,340.89 C503.09,343.12 509.15,345.22 519.00,347.53 C523.12,348.50 527.17,349.67 528.00,350.13 ZM 506.50 322.78 C511.72,325.80 511.56,323.32 505.99,314.40 C499.70,304.36 494.92,300.07 483.75,294.48 C474.39,289.80 470.00,288.86 470.00,291.55 C470.00,294.63 478.45,309.24 481.64,311.67 C483.42,313.03 489.29,315.82 494.69,317.88 C500.08,319.94 505.40,322.14 506.50,322.78 ZM 566.65 532.62 C563.94,535.77 556.00,536.91 552.19,534.70 C543.90,529.90 544.26,515.17 552.75,511.89 C556.45,510.46 563.63,511.35 566.05,513.54 C570.67,517.73 570.98,527.59 566.65,532.62 ZM 480.50 289.36 C488.80,293.86 492.59,295.46 492.81,294.52 C493.40,291.90 485.17,277.30 481.16,273.87 C472.14,266.17 457.00,258.72 457.00,261.99 C457.00,264.37 463.55,277.74 465.91,280.17 C467.33,281.65 473.90,285.78 480.50,289.36 ZM 612.67 604.33 C613.87,605.53 621.99,605.03 625.57,603.54 C629.85,601.75 632.00,597.20 632.00,589.96 C632.00,585.64 631.54,584.39 629.08,581.92 C626.40,579.24 625.57,579.00 619.08,579.00 L 612.00 579.00 L 612.00 591.33 C612.00,598.12 612.30,603.97 612.67,604.33 ZM 270.25 604.40 C272.77,605.53 282.20,604.13 284.24,602.31 C288.79,598.26 290.34,589.49 287.49,583.98 C285.40,579.94 283.16,579.00 275.57,579.00 L 269.00 579.00 L 269.00 591.42 C269.00,600.38 269.35,603.99 270.25,604.40 ZM 671.92 533.41 C668.31,536.45 662.91,536.82 658.87,534.32 C652.43,530.32 650.87,520.42 655.81,514.89 C658.09,512.34 659.59,511.65 663.76,511.25 C668.48,510.80 669.16,511.01 671.95,513.80 C674.77,516.61 675.00,517.38 675.00,523.83 C675.00,530.41 674.82,530.98 671.92,533.41 ZM 468.50 262.02 C476.54,267.22 479.58,268.73 479.81,267.63 C480.31,265.22 473.54,251.74 470.39,248.86 C465.55,244.44 450.91,235.00 448.89,235.00 C446.43,235.00 446.49,235.66 449.66,243.18 C453.07,251.31 455.18,253.42 468.50,262.02 ZM 543.00 579.00 L 543.00 604.00 L 549.00 604.00 C553.67,604.00 555.44,603.56 557.00,602.00 C559.42,599.58 559.61,594.75 557.37,592.51 C556.04,591.18 555.95,590.41 556.87,588.39 C559.59,582.42 556.54,579.00 548.50,579.00 ZM 400.83 603.51 C404.31,605.45 408.83,604.62 412.00,601.45 C415.07,598.39 415.42,591.81 412.73,587.71 C411.23,585.42 410.25,585.00 406.41,585.00 C400.36,585.00 398.30,586.28 396.92,590.89 C395.40,595.93 397.11,601.44 400.83,603.51 ZM 624.06 600.97 C621.47,602.35 617.67,602.27 616.20,600.80 C614.88,599.48 614.65,593.81 615.64,586.64 L 616.27 582.00 L 620.48 582.00 C625.60,582.00 627.95,584.22 628.69,589.76 C629.29,594.18 627.16,599.31 624.06,600.97 ZM 283.24 598.95 C281.44,601.17 274.19,602.88 272.75,601.43 C272.34,601.01 272.00,596.47 272.00,591.33 L 272.00 582.00 L 276.94 582.00 C280.92,582.00 282.19,582.44 283.44,584.22 C285.62,587.34 285.50,596.16 283.24,598.95 ZM 486.38 601.00 C487.84,603.20 489.47,605.00 490.01,605.00 C491.65,605.00 491.13,601.98 489.04,599.32 C487.08,596.83 487.08,596.81 489.16,593.99 C493.29,588.41 489.23,583.51 481.06,584.20 L 477.50 584.50 L 477.50 593.92 C477.50,600.56 477.87,603.46 478.75,603.75 C479.59,604.03 480.00,603.01 480.00,600.58 C480.00,595.58 482.92,595.77 486.38,601.00 ZM 427.21 594.25 C426.97,602.48 427.17,604.00 428.46,604.00 C429.49,604.00 430.00,603.04 430.00,601.12 C430.00,598.69 430.49,598.15 433.18,597.61 C437.66,596.72 440.00,594.26 440.00,590.47 C440.00,586.24 437.87,584.63 432.17,584.56 L 427.50 584.50 ZM 739.00 594.50 C739.00,602.28 739.27,604.00 740.50,604.00 C741.67,604.00 742.00,602.67 742.00,598.00 C742.00,594.70 742.34,592.00 742.75,592.01 C743.16,592.01 745.24,594.71 747.36,598.01 C749.84,601.86 751.90,604.00 753.11,604.00 C754.84,604.00 755.00,603.14 755.00,593.92 C755.00,586.30 754.69,583.93 753.75,584.25 C752.98,584.50 752.31,587.31 752.00,591.55 L 751.50 598.44 L 747.13 591.72 C744.29,587.35 742.11,585.00 740.88,585.00 C739.17,585.00 739.00,585.86 739.00,594.50 ZM 374.17 534.35 C371.83,536.47 364.20,536.53 361.22,534.44 C358.65,532.64 358.31,528.83 360.53,526.61 C363.52,523.62 371.23,523.43 374.75,526.24 C376.60,527.73 376.26,532.45 374.17,534.35 ZM 267.07 534.96 C263.89,536.67 256.51,536.24 254.81,534.25 C252.22,531.24 251.88,530.10 252.95,528.10 C254.57,525.06 260.47,523.52 265.13,524.92 C268.77,526.01 269.00,526.31 269.00,530.00 C269.00,532.86 268.47,534.21 267.07,534.96 ZM 408.78 600.44 C407.56,601.30 406.08,602.00 405.50,602.00 C404.92,602.00 403.44,601.30 402.22,600.44 C399.32,598.41 399.08,591.15 401.83,588.65 C406.22,584.68 411.00,587.74 411.00,594.51 C411.00,597.90 410.50,599.24 408.78,600.44 ZM 713.28 603.03 C716.84,605.20 717.36,605.28 721.88,604.38 C724.73,603.80 725.00,603.41 725.00,599.88 C725.00,597.10 724.58,596.00 723.50,596.00 C722.58,596.00 722.00,596.94 722.00,598.43 C722.00,602.94 715.49,602.66 713.02,598.04 C711.35,594.91 711.84,592.06 714.54,589.37 C716.71,587.19 717.63,586.93 721.04,587.51 C724.27,588.05 725.00,587.88 725.00,586.59 C725.00,585.33 723.87,585.00 719.61,585.00 C713.04,585.00 710.18,587.01 709.35,592.20 C708.48,597.61 709.64,600.81 713.28,603.03 ZM 645.00 585.00 L 645.00 604.00 L 651.00 604.00 C657.83,604.00 659.20,602.27 652.75,601.81 C648.95,601.53 648.47,601.21 648.18,598.75 C647.89,596.22 648.14,596.00 651.33,596.00 C656.35,596.00 657.11,593.22 652.20,592.81 C649.00,592.54 648.50,592.16 648.50,590.00 C648.50,587.77 648.92,587.49 652.44,587.43 C654.61,587.40 656.56,586.83 656.77,586.18 C657.05,585.36 655.32,585.00 651.08,585.00 ZM 353.00 585.00 L 353.00 604.00 L 359.00 604.00 C365.83,604.00 367.20,602.27 360.75,601.81 C356.95,601.53 356.47,601.21 356.18,598.75 C355.89,596.22 356.14,596.00 359.33,596.00 C364.35,596.00 365.11,593.22 360.20,592.81 C357.00,592.54 356.50,592.16 356.50,590.00 C356.50,587.77 356.97,587.47 360.75,587.19 C367.20,586.73 365.83,585.00 359.00,585.00 ZM 453.00 585.00 L 453.00 604.00 L 459.00 604.00 C465.83,604.00 467.20,602.27 460.75,601.81 C456.97,601.53 456.47,601.20 456.19,598.81 C455.91,596.37 456.21,596.10 459.61,595.81 C464.70,595.39 465.21,593.22 460.31,592.81 C457.00,592.54 456.50,592.17 456.50,590.00 C456.50,587.77 456.97,587.47 460.75,587.19 C467.20,586.73 465.83,585.00 459.00,585.00 ZM 669.75 604.31 C672.95,605.15 674.07,605.01 677.11,603.44 C679.63,602.14 680.07,601.38 679.81,598.73 C679.57,596.35 678.53,594.92 675.50,592.87 C670.17,589.26 670.25,587.44 675.75,587.69 C678.87,587.83 680.00,587.50 680.00,586.44 C680.00,584.71 672.94,584.43 669.93,586.04 C667.16,587.52 667.48,591.54 670.55,593.70 C677.49,598.60 677.53,598.65 676.04,600.45 C674.70,602.07 673.57,602.08 669.75,600.51 C668.42,599.96 668.00,600.28 668.00,601.82 C668.00,602.94 668.79,604.06 669.75,604.31 ZM 302.00 585.00 L 302.00 604.00 L 308.00 604.00 C314.83,604.00 316.20,602.27 309.75,601.81 C305.95,601.53 305.47,601.21 305.18,598.75 C304.89,596.20 305.13,596.00 308.43,596.00 C310.94,596.00 312.00,595.55 312.00,594.50 C312.00,593.45 310.94,593.00 308.50,593.00 C305.26,593.00 305.00,592.77 305.00,589.92 C305.00,586.93 305.11,586.86 309.18,587.15 C311.82,587.34 313.50,587.00 313.76,586.22 C314.05,585.35 312.44,585.00 308.08,585.00 ZM 505.25 603.99 C508.16,605.19 512.00,604.36 514.38,602.03 C517.26,599.21 515.83,595.46 510.92,592.96 C505.65,590.27 505.84,587.45 511.28,587.61 C513.81,587.69 515.00,587.29 515.00,586.36 C515.00,584.62 506.92,584.48 505.20,586.20 C504.54,586.86 504.00,588.65 504.00,590.18 C504.00,592.41 504.78,593.36 507.93,594.97 C512.84,597.47 513.67,598.76 511.66,600.77 C510.36,602.07 509.61,602.14 507.49,601.18 C504.05,599.61 503.00,599.69 503.00,601.53 C503.00,602.37 504.01,603.48 505.25,603.99 ZM 329.50 602.25 C329.89,603.21 331.03,604.00 332.02,604.00 C333.35,604.00 334.62,601.95 336.82,596.25 C338.46,591.99 340.12,587.71 340.51,586.75 C341.00,585.54 340.74,585.00 339.69,585.00 C338.73,585.00 337.19,587.58 335.50,592.00 C334.03,595.85 332.51,599.00 332.13,599.00 C331.74,599.00 330.34,595.85 329.00,592.00 C327.66,588.15 325.99,585.00 325.29,585.00 C324.58,585.00 324.00,585.37 324.00,585.82 C324.00,586.61 328.01,598.58 329.50,602.25 ZM 575.00 600.06 C575.00,603.41 575.31,604.09 576.75,603.81 C577.95,603.58 578.53,602.48 578.60,600.33 C578.66,598.61 580.12,594.68 581.85,591.61 C585.45,585.23 585.51,585.00 583.56,585.00 C582.77,585.00 581.12,586.80 579.88,589.00 C578.64,591.20 577.33,593.00 576.97,593.00 C576.60,593.00 575.49,591.20 574.50,589.00 C573.29,586.32 572.05,585.00 570.75,585.00 C568.97,585.00 569.06,585.45 571.90,590.48 C573.97,594.14 575.00,597.34 575.00,600.06 ZM 377.00 594.50 L 377.00 604.00 L 382.50 604.00 C388.68,604.00 390.05,602.29 384.25,601.81 L 380.50 601.50 L 380.50 593.25 C380.50,586.06 380.28,585.00 378.75,585.00 C377.21,585.00 377.00,586.12 377.00,594.50 ZM 555.17 598.53 C554.28,600.48 553.30,601.00 550.52,601.00 C547.08,601.00 547.00,600.91 547.00,597.00 C547.00,593.12 547.10,593.00 550.38,593.00 C554.80,593.00 556.69,595.18 555.17,598.53 ZM 693.00 594.50 C693.00,602.08 693.29,604.00 694.43,604.00 C695.55,604.00 695.93,601.93 696.18,594.50 C696.47,585.99 696.32,585.00 694.75,585.00 C693.21,585.00 693.00,586.12 693.00,594.50 ZM 552.95 588.56 C552.29,589.35 550.69,590.00 549.38,590.00 C547.26,590.00 547.00,589.55 547.00,585.94 C547.00,581.95 547.07,581.88 550.25,582.19 C552.77,582.43 553.57,583.02 553.83,584.81 C554.01,586.07 553.61,587.76 552.95,588.56 ZM 435.95 593.56 C434.71,595.06 431.82,595.49 430.67,594.33 C430.30,593.97 430.00,592.14 430.00,590.27 C430.00,587.04 430.16,586.89 433.25,587.19 C435.77,587.43 436.57,588.02 436.83,589.81 C437.01,591.07 436.61,592.76 435.95,593.56 ZM 485.40 593.69 C481.80,596.33 480.00,595.18 480.00,590.27 C480.00,587.04 480.16,586.89 483.25,587.19 C485.83,587.44 486.57,588.01 486.84,589.94 C487.06,591.45 486.50,592.89 485.40,593.69 ZM 511.93 295.09 C514.49,299.64 513.49,300.18 509.77,296.25 C507.69,294.05 507.42,293.27 508.45,292.34 C509.45,291.42 510.20,292.02 511.93,295.09 ZM 570.32 365.88 C572.76,368.31 572.60,368.38 568.54,366.65 C566.39,365.73 565.94,365.16 566.89,364.57 C567.72,364.06 568.98,364.54 570.32,365.88 ZM 527.00 320.12 C527.00,320.61 526.61,321.00 526.12,321.00 C524.82,321.00 522.92,318.42 523.67,317.67 C524.42,316.92 527.00,318.82 527.00,320.12 Z" fill="rgb(5,4,4)"/>
<path d="M 1017.65 690.17 C1016.74,689.17 1016.00,687.87 1016.00,687.29 C1016.00,686.71 1014.88,685.49 1013.50,684.59 C1012.12,683.69 1011.00,682.48 1011.00,681.90 C1011.00,680.76 1002.59,672.00 1001.50,672.00 C1001.14,672.00 998.85,670.01 996.42,667.58 C993.99,665.15 992.00,662.86 992.00,662.50 C992.00,661.41 983.63,653.43 981.73,652.71 C980.75,652.35 979.65,651.25 979.29,650.27 C978.57,648.37 970.59,640.00 969.50,640.00 C969.14,640.00 966.85,638.01 964.42,635.58 C961.99,633.15 960.00,630.86 960.00,630.50 C960.00,629.43 951.25,621.00 950.15,621.00 C949.59,621.00 948.83,619.99 948.47,618.75 C948.10,617.51 946.38,615.07 944.65,613.32 C942.92,611.58 940.99,609.61 940.37,608.96 C939.74,608.30 936.71,605.32 933.62,602.32 C930.53,599.32 928.00,596.52 928.00,596.10 C928.00,595.67 926.93,594.84 925.63,594.24 C924.28,593.62 922.48,591.27 921.43,588.73 C920.43,586.30 918.68,583.90 917.55,583.40 C916.43,582.91 914.93,581.29 914.23,579.81 C913.52,578.33 912.08,576.84 911.02,576.51 C909.97,576.17 908.83,575.03 908.49,573.98 C908.16,572.92 906.68,571.47 905.20,570.77 C903.73,570.06 901.94,568.27 901.23,566.80 C900.53,565.32 899.13,563.86 898.13,563.54 C897.12,563.22 895.79,561.85 895.17,560.48 C894.55,559.12 893.43,558.00 892.68,558.00 C891.06,558.00 888.00,554.84 888.00,553.18 C888.00,551.69 875.08,538.60 872.73,537.72 C871.75,537.35 870.67,536.25 870.31,535.27 C869.96,534.30 867.12,531.03 864.00,528.00 C860.88,524.97 858.04,521.70 857.69,520.73 C857.33,519.75 856.25,518.67 855.27,518.31 C854.30,517.96 851.03,515.12 848.00,512.00 C844.97,508.88 841.70,506.04 840.73,505.69 C839.75,505.33 838.66,504.25 838.31,503.27 C837.95,502.30 835.26,499.19 832.33,496.36 C829.40,493.53 827.00,490.56 827.00,489.76 C827.00,488.07 823.88,485.00 822.15,485.00 C821.49,485.00 820.45,483.88 819.83,482.52 C819.21,481.15 817.95,479.80 817.03,479.51 C814.50,478.71 808.00,472.42 808.00,470.77 C808.00,469.07 804.88,466.00 803.15,466.00 C802.49,466.00 801.45,464.88 800.83,463.52 C800.21,462.15 798.89,460.78 797.90,460.47 C796.91,460.15 795.00,457.49 793.65,454.55 C792.21,451.41 790.35,448.93 789.15,448.55 C788.02,448.19 786.85,447.10 786.54,446.13 C786.23,445.16 784.63,443.37 782.99,442.15 C781.35,440.93 780.00,439.30 780.00,438.52 C780.00,437.75 778.78,436.52 777.28,435.80 C775.78,435.09 774.08,433.60 773.50,432.50 C772.10,429.85 766.44,424.00 765.27,424.00 C764.17,424.00 760.00,419.71 760.00,418.58 C760.00,418.14 757.60,415.47 754.67,412.64 C751.74,409.81 749.05,406.70 748.69,405.73 C748.34,404.75 747.25,403.65 746.27,403.29 C744.37,402.57 736.00,394.59 736.00,393.50 C736.00,392.64 727.36,384.00 726.50,384.00 C725.41,384.00 717.43,375.63 716.71,373.73 C716.35,372.75 715.25,371.65 714.27,371.29 C712.03,370.44 704.00,362.50 704.00,361.14 C704.00,360.57 703.04,359.44 701.88,358.63 C700.71,357.81 699.23,356.10 698.60,354.82 C697.96,353.54 696.22,351.91 694.72,351.20 C693.22,350.48 692.00,349.32 692.00,348.63 C692.00,347.94 690.54,345.98 688.75,344.28 C686.96,342.57 684.90,340.58 684.18,339.84 C678.88,334.48 676.30,332.20 675.00,331.76 C674.17,331.48 672.89,329.17 672.14,326.63 C671.18,323.36 670.00,321.63 668.14,320.75 C666.69,320.06 665.09,318.56 664.58,317.41 C664.08,316.27 662.73,314.92 661.59,314.42 C660.44,313.91 658.93,312.29 658.23,310.81 C657.52,309.33 656.13,307.86 655.13,307.54 C654.12,307.22 652.79,305.85 652.17,304.48 C651.55,303.12 650.43,302.00 649.68,302.00 C648.06,302.00 645.00,298.84 645.00,297.18 C645.00,295.69 632.08,282.60 629.73,281.72 C628.75,281.35 627.65,280.25 627.29,279.27 C626.42,276.98 619.02,269.58 616.73,268.71 C615.75,268.35 614.65,267.25 614.27,266.27 C613.39,263.97 600.03,250.61 597.73,249.73 C596.75,249.35 595.65,248.25 595.29,247.27 C594.42,244.98 587.02,237.58 584.73,236.72 C583.76,236.35 582.53,234.90 582.00,233.50 C581.47,232.10 580.39,230.70 579.61,230.40 C578.82,230.10 577.64,228.55 576.98,226.96 C576.32,225.37 574.93,223.79 573.88,223.46 C572.83,223.13 571.34,221.63 570.56,220.12 C569.79,218.62 568.03,216.88 566.66,216.26 C565.29,215.63 563.90,214.26 563.57,213.21 C563.23,212.16 561.88,210.81 560.57,210.21 C559.25,209.61 557.89,208.22 557.54,207.11 C557.18,206.01 556.02,204.82 554.94,204.48 C553.86,204.14 552.34,202.63 551.56,201.12 C550.79,199.62 549.03,197.88 547.66,197.26 C546.29,196.63 544.89,195.22 544.54,194.11 C544.18,193.01 542.98,191.81 541.85,191.45 C540.65,191.07 538.79,188.59 537.35,185.45 C536.00,182.51 534.09,179.85 533.10,179.53 C532.11,179.22 530.81,177.88 530.21,176.57 C529.61,175.25 528.22,173.89 527.11,173.54 C526.01,173.18 524.82,172.02 524.48,170.94 C524.14,169.86 522.57,168.31 521.00,167.50 C519.43,166.69 517.82,165.01 517.43,163.76 C517.03,162.52 514.38,159.26 511.52,156.50 C508.67,153.75 506.05,150.70 505.69,149.73 C505.34,148.75 504.25,147.65 503.27,147.29 C500.98,146.42 493.58,139.02 492.71,136.73 C492.35,135.75 491.25,134.65 490.27,134.27 C487.97,133.39 474.61,120.03 473.73,117.73 C473.35,116.75 472.25,115.65 471.27,115.29 C469.03,114.44 461.00,106.50 461.00,105.14 C461.00,104.57 460.04,103.44 458.88,102.63 C457.71,101.81 456.24,100.10 455.61,98.84 C454.98,97.57 453.41,96.02 452.12,95.38 C450.84,94.73 449.27,93.15 448.63,91.86 C447.99,90.56 446.53,89.09 445.40,88.58 C444.26,88.08 442.92,86.73 442.42,85.59 C441.91,84.44 440.29,82.93 438.81,82.23 C437.33,81.52 435.84,80.08 435.51,79.02 C435.17,77.97 434.03,76.83 432.98,76.49 C431.92,76.16 430.48,74.67 429.77,73.19 C429.07,71.71 427.56,70.09 426.41,69.58 C425.27,69.08 423.92,67.73 423.42,66.59 C422.91,65.44 421.31,63.94 419.86,63.25 C418.00,62.37 416.82,60.64 415.86,57.37 C415.11,54.83 413.83,52.52 413.00,52.24 C412.17,51.96 410.07,50.33 408.32,48.61 C397.90,38.39 396.19,36.48 395.53,34.25 C395.17,33.01 394.41,32.00 393.85,32.00 C392.75,32.00 384.00,23.57 384.00,22.50 C384.00,21.41 375.63,13.43 373.73,12.72 C372.76,12.35 371.57,10.99 371.08,9.70 C370.58,8.41 369.02,6.59 367.59,5.65 C366.17,4.72 365.00,3.06 365.00,1.98 C365.00,0.01 366.95,0.00 694.50,0.00 L 1024.00 0.00 L 1024.00 692.00 L 1021.65 692.00 C1020.37,692.00 1018.57,691.18 1017.65,690.17 ZM 271.50 547.29 C270.40,547.00 269.19,546.28 268.82,545.69 C268.34,544.93 267.38,544.96 265.52,545.81 C261.22,547.77 252.96,547.27 247.96,544.75 C240.20,540.84 237.91,532.51 242.25,524.02 C245.94,516.79 248.58,515.50 259.58,515.51 C266.37,515.52 269.00,515.18 269.00,514.30 C269.00,511.97 264.89,510.76 259.11,511.38 C258.49,511.45 257.90,511.51 257.35,511.57 C250.96,512.27 248.87,512.50 247.62,511.58 C246.91,511.05 246.47,510.15 245.66,508.74 C243.11,504.29 243.42,503.93 252.00,501.28 C260.04,498.80 269.47,499.03 274.83,501.85 C281.93,505.58 282.95,509.08 282.98,529.75 L 283.00 547.00 L 280.25 547.01 C278.74,547.02 276.60,547.20 275.50,547.42 C274.40,547.63 272.60,547.58 271.50,547.29 ZM 200.47 546.77 C200.15,545.95 200.03,542.63 200.20,539.39 L 200.50 533.50 L 205.19 532.96 C207.97,532.64 209.87,532.46 211.18,531.48 C214.00,529.36 214.00,523.48 214.00,504.26 L 214.00 503.05 C214.00,484.43 214.33,477.07 215.20,476.20 C216.48,474.92 222.89,474.75 226.95,475.88 L 229.39 476.56 L 229.13 505.53 C228.84,538.55 228.64,539.46 220.91,544.21 C215.41,547.59 201.45,549.34 200.47,546.77 ZM 309.08 544.75 C306.80,538.86 293.80,507.11 292.47,504.18 C291.64,502.36 291.23,500.44 291.54,499.93 C291.86,499.42 294.96,499.00 298.44,499.00 C304.41,499.00 304.82,499.15 305.82,501.75 C306.40,503.26 308.53,509.00 310.54,514.50 C312.55,520.00 314.57,525.17 315.02,525.98 C316.00,527.75 316.19,527.35 322.43,511.00 L 326.82 499.50 L 333.41 499.20 C338.72,498.97 340.00,499.20 340.00,500.40 C340.00,501.54 330.75,525.24 322.30,545.75 C321.97,546.55 319.66,547.00 315.87,547.00 C310.66,547.00 309.85,546.73 309.08,544.75 ZM 355.45 545.59 C353.77,544.86 351.14,542.77 349.60,540.93 C347.04,537.90 346.83,537.04 347.19,531.31 C347.87,520.67 353.92,515.00 364.58,515.00 C368.04,515.00 372.02,515.44 373.43,515.98 C376.62,517.19 376.82,515.82 373.89,512.89 C372.06,511.06 370.98,510.85 365.64,511.32 C362.26,511.62 358.38,512.14 357.00,512.48 C354.85,513.01 354.18,512.52 352.20,509.01 L 349.90 504.93 L 354.70 502.72 C358.07,501.16 360.55,500.64 366.16,500.52 C363.78,500.87 362.00,501.41 362.00,502.03 C362.00,502.53 362.67,502.68 363.50,502.36 C364.33,502.05 365.00,502.30 365.00,502.92 C365.00,503.64 366.92,504.01 370.25,503.92 C376.45,503.77 379.65,504.64 380.43,506.69 C381.65,509.85 378.92,511.06 376.36,508.50 C374.74,506.89 363.45,506.29 364.42,507.87 C364.72,508.35 362.72,509.04 359.98,509.41 C357.24,509.77 355.00,510.48 355.00,510.98 C355.00,511.48 356.01,511.64 357.25,511.34 C358.49,511.03 362.20,510.57 365.50,510.30 C370.60,509.88 371.91,510.13 374.25,511.98 C377.74,514.73 378.10,518.60 374.75,517.48 C373.51,517.06 370.02,516.62 367.00,516.51 C363.98,516.39 363.28,516.49 365.45,516.72 C368.33,517.02 369.01,517.38 367.95,518.05 C366.93,518.69 367.75,518.97 370.68,518.98 C374.56,519.00 374.84,519.18 374.43,521.42 C374.18,522.78 374.65,524.51 375.49,525.35 C377.32,527.18 377.48,533.09 375.75,534.95 C374.75,536.02 374.75,536.15 375.75,535.59 C376.44,535.20 377.00,535.27 377.00,535.75 C377.00,536.22 373.74,536.69 369.75,536.80 C361.42,537.01 359.19,535.87 357.99,530.81 L 357.20 527.50 L 357.10 530.68 C356.99,534.07 359.44,536.70 365.03,539.18 C368.72,540.80 368.89,545.00 365.28,545.00 C364.03,545.00 363.00,544.49 363.00,543.87 C363.00,543.13 361.77,542.94 359.47,543.31 C356.51,543.79 355.37,543.39 352.47,540.84 C350.56,539.16 349.00,538.04 349.00,538.34 C349.00,539.64 353.87,544.00 356.39,544.96 C360.43,546.49 370.15,546.20 372.44,544.47 C375.15,542.42 377.00,542.64 377.00,545.00 C377.00,546.75 377.63,546.99 383.11,547.00 C377.40,547.00 376.00,546.70 376.00,545.47 C376.00,544.11 375.69,544.11 373.05,545.47 C369.43,547.35 359.63,547.41 355.45,545.59 ZM 554.64 359.91 C561.97,363.19 567.71,365.10 565.92,363.67 C565.69,363.48 561.65,359.94 556.95,355.80 C552.26,351.66 544.16,345.74 538.96,342.64 C525.44,334.57 523.72,335.01 532.16,344.39 C528.55,340.65 526.26,337.40 527.04,336.45 C527.74,335.61 526.42,333.89 522.48,330.52 C521.57,329.75 520.70,328.95 519.83,328.10 C522.78,330.75 526.43,333.16 531.96,336.39 C537.17,339.42 541.62,341.72 541.85,341.48 C542.47,340.86 531.60,327.81 526.71,323.31 C522.34,319.29 509.71,310.00 508.62,310.00 C507.16,310.00 508.25,312.75 511.97,318.46 C512.51,319.29 513.03,320.07 513.55,320.80 C511.78,318.47 509.82,315.70 507.50,312.27 C506.78,311.20 506.94,310.50 508.09,309.75 C509.46,308.86 509.14,308.21 505.78,305.18 C505.01,304.48 503.95,303.25 502.77,301.70 C504.85,303.92 507.54,306.07 512.13,309.50 C517.70,313.67 522.48,316.85 522.75,316.58 C523.57,315.77 515.04,302.79 510.63,298.14 C508.36,295.74 503.89,291.57 500.70,288.89 C491.73,281.33 490.70,282.45 496.96,293.30 C494.22,288.99 492.00,284.96 492.00,283.85 C492.00,283.26 492.90,283.00 493.99,283.29 C495.45,283.67 494.77,282.42 491.46,278.65 C489.76,276.72 487.64,273.57 485.75,270.38 C487.76,273.60 490.03,276.70 491.82,278.37 C494.40,280.77 498.75,284.80 501.50,287.34 C505.92,291.42 508.00,292.79 508.00,291.64 C508.00,291.44 506.37,287.73 504.38,283.39 C501.36,276.81 499.34,274.13 492.17,267.25 C490.23,265.39 488.58,263.86 487.18,262.64 C488.18,263.48 489.32,264.47 490.60,265.63 C494.68,269.27 499.69,274.78 501.75,277.88 C503.84,281.01 506.25,283.50 507.19,283.50 C509.00,283.50 522.56,297.94 526.05,303.58 C525.90,303.38 525.68,303.07 525.47,302.75 C522.43,298.13 509.16,284.00 507.86,284.00 C505.82,284.00 513.79,297.73 519.32,303.73 C521.51,306.11 522.56,307.77 521.65,307.42 C519.33,306.53 519.53,307.21 523.57,313.73 C525.53,316.90 530.59,322.80 534.82,326.84 C539.04,330.87 541.26,333.41 539.75,332.47 C535.64,329.93 536.42,332.13 541.75,338.12 C547.60,344.70 550.73,347.44 557.91,352.25 C560.98,354.31 563.03,356.00 562.45,356.00 C561.87,356.00 560.87,355.47 560.22,354.82 C559.57,354.17 558.74,353.92 558.39,354.28 C557.38,355.28 572.42,367.36 576.16,368.55 C577.17,368.87 578.00,369.54 578.00,370.04 C578.00,370.53 578.62,370.70 579.37,370.41 C580.13,370.12 581.42,370.56 582.25,371.39 C583.08,372.23 583.97,372.70 584.22,372.45 C584.47,372.20 586.44,372.67 588.59,373.49 C592.42,374.96 592.43,374.98 589.12,374.39 C584.66,373.59 585.74,375.18 591.20,377.42 C593.57,378.39 596.94,379.88 598.70,380.73 C599.91,381.31 602.09,382.09 604.28,382.75 C600.27,381.76 598.25,381.62 597.83,382.30 C597.35,383.06 596.04,383.05 593.33,382.25 C592.20,381.92 590.29,381.42 588.16,380.89 C595.56,381.54 584.53,374.19 563.74,365.61 C548.97,359.52 548.46,360.90 562.07,370.05 C565.36,372.26 567.74,373.81 569.79,374.99 C567.86,374.02 565.52,372.78 562.50,371.16 C557.79,368.64 557.09,368.44 559.25,370.26 C561.20,371.90 562.12,373.37 561.96,374.17 C561.60,373.20 559.47,371.29 555.71,368.61 C552.26,366.15 548.54,363.15 547.46,361.96 C547.01,361.45 546.42,360.94 545.71,360.42 C547.25,361.40 548.83,362.49 550.50,363.72 C554.51,366.66 555.03,366.86 553.10,364.72 C550.98,362.36 550.89,361.98 552.37,361.41 C553.61,360.94 551.99,359.51 546.13,355.90 C545.42,355.46 544.69,354.99 543.95,354.48 C546.86,356.25 550.26,357.95 554.64,359.91 ZM 374.17 534.35 C376.26,532.45 376.60,527.73 374.75,526.24 C371.23,523.43 363.52,523.62 360.53,526.61 C358.31,528.83 358.65,532.64 361.22,534.44 C364.20,536.53 371.83,536.47 374.17,534.35 ZM 267.07 534.96 C268.47,534.21 269.00,532.86 269.00,530.00 C269.00,526.31 268.77,526.01 265.13,524.92 C260.47,523.52 254.57,525.06 252.95,528.10 C251.88,530.10 252.22,531.24 254.81,534.25 C256.51,536.24 263.89,536.67 267.07,534.96 ZM 811.41 546.60 C812.10,546.22 812.82,545.74 813.64,545.15 C818.94,541.31 821.00,537.89 821.00,532.94 C821.00,524.32 817.04,520.15 806.88,518.07 C799.64,516.58 797.06,514.83 798.89,512.63 C800.98,510.12 806.29,509.58 810.02,511.51 L 813.27 513.19 L 816.76 509.70 C820.68,505.79 820.47,504.78 815.18,502.11 C810.90,499.94 806.49,499.07 802.37,499.46 C804.41,499.16 806.66,499.01 809.10,499.01 C814.73,499.00 816.10,499.36 818.35,501.45 C821.54,504.41 821.66,506.26 818.93,510.10 C815.97,514.26 813.25,515.52 811.17,513.71 C807.68,510.69 801.00,510.59 801.00,513.57 C801.00,515.36 804.18,517.00 807.62,517.00 C812.32,517.00 818.46,520.64 820.31,524.53 C822.57,529.27 822.48,536.70 820.11,540.59 C818.49,543.24 815.27,545.33 811.41,546.60 ZM 614.97 380.04 C614.16,380.55 613.28,380.93 613.00,380.89 C612.72,380.84 608.08,379.67 602.68,378.27 C595.73,376.48 593.17,375.43 593.93,374.67 C594.69,373.91 596.38,374.09 599.75,375.28 C602.36,376.20 606.53,377.23 609.00,377.56 C615.76,378.47 616.78,378.89 614.97,380.04 ZM 544.00 328.17 C544.00,330.01 542.19,328.56 535.82,321.62 C531.02,316.39 529.67,314.38 531.04,314.48 C532.09,314.56 534.25,316.40 535.84,318.56 C537.43,320.73 539.91,323.59 541.36,324.92 C542.81,326.26 544.00,327.72 544.00,328.17 ZM 608.19 372.52 C608.06,372.70 608.00,372.99 608.00,373.39 C608.00,374.28 607.66,375.00 607.25,375.00 C605.85,374.99 592.90,370.23 592.20,369.47 C591.48,368.68 594.18,369.23 597.25,370.49 C598.41,370.97 599.00,370.76 598.99,369.86 C598.99,369.54 598.67,369.11 598.15,368.65 C598.78,369.08 599.27,369.48 599.50,369.77 C600.05,370.47 602.75,371.46 605.50,371.96 C606.27,372.11 607.20,372.30 608.19,372.52 ZM 639.92 378.41 C638.89,379.41 621.22,380.17 620.65,379.24 C620.26,378.61 623.64,378.07 629.76,377.77 C638.98,377.34 640.89,377.46 639.92,378.41 ZM 562.00 349.00 C562.00,350.80 560.57,350.02 556.00,345.70 C553.53,343.37 550.15,340.42 548.50,339.15 C546.85,337.89 546.06,337.14 546.75,337.48 C547.44,337.83 548.00,337.61 548.00,336.98 C548.00,336.35 550.74,338.58 554.08,341.92 C557.42,345.26 560.57,348.00 561.08,348.00 C561.59,348.00 562.00,348.45 562.00,349.00 ZM 383.01 539.99 C381.63,542.55 380.31,542.55 379.50,539.99 C379.14,538.88 378.44,538.23 377.94,538.54 C377.44,538.85 377.29,538.41 377.62,537.55 C377.91,536.80 378.05,536.36 378.35,536.19 C378.76,535.96 379.44,536.22 381.14,536.86 L 381.48 536.99 C383.70,537.84 383.92,538.27 383.01,539.99 ZM 511.93 295.09 C510.20,292.02 509.45,291.42 508.45,292.34 C507.42,293.27 507.69,294.05 509.77,296.25 C513.49,300.18 514.49,299.64 511.93,295.09 ZM 680.99 367.26 C681.77,366.75 682.30,366.33 682.49,366.02 C683.36,364.61 682.81,364.71 676.94,367.02 C673.60,368.34 669.08,369.81 662.31,371.75 C670.82,369.26 677.05,367.07 680.31,365.44 C685.73,362.72 686.00,362.64 686.00,363.87 C686.00,364.35 683.93,365.67 680.99,367.26 ZM 570.32 365.88 C568.98,364.54 567.72,364.06 566.89,364.57 C565.94,365.16 566.39,365.73 568.54,366.65 C572.60,368.38 572.76,368.31 570.32,365.88 ZM 527.00 320.12 C527.00,318.82 524.42,316.92 523.67,317.67 C522.92,318.42 524.82,321.00 526.12,321.00 C526.61,321.00 527.00,320.61 527.00,320.12 ZM 592.70 380.90 C591.90,381.70 592.40,381.99 594.55,381.97 C597.14,381.94 597.27,381.81 595.65,380.87 C594.33,380.10 593.49,380.11 592.70,380.90 ZM 650.93 374.87 C645.48,376.08 637.19,376.38 629.25,375.92 C637.12,376.20 646.03,375.86 650.93,374.87 ZM 789.54 506.13 C791.19,503.75 793.68,501.95 797.00,500.76 C794.93,501.59 793.01,502.80 791.29,504.37 C790.59,505.02 790.02,505.58 789.54,506.13 ZM 528.04 368.03 C531.58,369.74 535.81,370.78 542.80,372.01 C536.04,370.96 531.79,369.92 528.04,368.03 ZM 795.76 547.00 C797.27,547.46 801.02,547.87 804.10,547.91 C804.21,547.92 804.32,547.92 804.42,547.92 C801.48,548.10 798.48,547.82 795.76,547.00 ZM 382.73 503.14 C381.37,502.30 379.16,501.41 377.18,500.86 C379.24,501.18 380.55,501.77 382.27,502.85 C382.58,503.03 382.87,503.22 383.14,503.40 C383.01,503.32 382.87,503.23 382.73,503.14 ZM 618.47 384.83 C623.28,385.03 627.65,384.86 628.35,384.22 C627.60,384.95 623.36,385.11 618.47,384.83 ZM 587.64 362.50 C581.08,358.14 573.20,351.87 569.13,347.50 C573.07,351.73 581.01,358.05 587.64,362.50 ZM 519.63 351.18 C518.39,351.00 517.18,350.87 516.04,350.79 C514.78,350.71 513.76,350.73 512.99,350.86 C514.34,350.55 516.55,350.66 519.63,351.18 ZM 539.41 356.93 C536.97,355.84 534.21,354.81 531.34,353.91 C534.26,354.77 536.87,355.74 539.41,356.93 ZM 632.90 383.09 C634.05,382.94 635.36,382.80 636.72,382.70 C638.23,382.58 639.93,382.36 641.71,382.07 C639.70,382.42 637.80,382.67 636.23,382.78 C635.05,382.85 633.92,382.96 632.90,383.09 ZM 662.78 375.16 C663.34,374.97 663.91,374.78 664.50,374.60 C665.31,374.35 666.18,374.06 667.08,373.73 C665.56,374.32 664.24,374.78 663.24,375.03 C663.09,375.07 662.93,375.11 662.78,375.16 ZM 655.72 378.52 C656.87,378.06 657.66,377.62 657.92,377.26 C657.93,377.24 657.96,377.21 658.00,377.18 C657.95,377.52 657.09,377.99 655.72,378.52 ZM 388.80 512.41 C389.41,516.01 389.63,521.20 389.82,529.25 C389.63,521.22 389.40,516.01 388.80,512.41 Z" fill="rgb(69,72,73)"/>
<path d="M 656.00 566.06 C652.45,564.98 645.25,561.21 644.54,560.06 C644.21,559.53 645.25,557.63 646.85,555.84 L 649.76 552.59 L 654.10 554.54 C656.78,555.75 660.53,556.48 663.85,556.44 C668.65,556.40 669.59,556.02 672.13,553.18 C673.93,551.16 675.00,548.86 675.00,546.98 C675.00,546.81 675.00,546.64 675.00,546.49 C675.01,545.23 675.01,544.53 674.68,544.28 C674.27,543.98 673.35,544.37 671.31,545.23 C671.10,545.31 670.88,545.40 670.65,545.50 C662.74,548.81 652.03,546.39 646.74,540.10 C642.95,535.60 641.72,530.54 642.14,521.23 C642.46,514.20 642.89,512.61 645.50,508.91 C651.03,501.06 662.65,497.74 671.53,501.45 C674.64,502.75 675.00,502.73 675.00,501.31 C675.00,499.98 675.86,499.82 680.25,500.35 C683.14,500.70 686.33,500.99 687.34,500.99 C689.09,501.00 689.16,502.26 688.82,525.75 C688.49,548.76 688.32,550.78 686.33,554.50 C683.60,559.60 679.51,563.47 674.78,565.45 C670.90,567.07 660.41,567.41 656.00,566.06 ZM 550.20 546.16 C543.63,543.82 539.45,540.00 536.38,533.50 C532.11,524.45 533.42,515.15 540.03,507.62 C544.99,501.97 549.65,500.00 558.07,500.00 C566.68,500.00 573.42,503.12 577.48,508.97 C590.97,528.44 572.22,554.00 550.20,546.16 ZM 698.00 476.00 L 712.00 476.00 L 712.00 503.05 L 714.95 501.53 C719.56,499.14 729.00,499.52 733.01,502.25 C740.17,507.12 740.47,508.13 740.81,528.57 L 741.12 547.00 L 728.00 547.00 L 728.00 532.55 C728.00,523.72 727.55,517.10 726.84,515.55 C724.98,511.47 715.85,510.06 713.06,513.43 C712.50,514.10 711.93,521.81 711.78,530.57 L 711.50 546.50 L 704.75 546.80 L 698.00 547.09 ZM 484.62 543.88 C484.28,542.16 484.00,526.89 484.00,509.95 C484.00,508.81 484.00,507.72 484.00,506.66 C483.99,484.45 483.99,478.31 486.73,476.62 C487.78,475.98 489.22,475.99 491.22,476.00 C491.47,476.00 491.73,476.00 491.99,476.00 L 496.84 476.00 L 497.17 488.92 C497.35,496.03 497.80,502.13 498.16,502.49 C498.52,502.85 500.18,502.44 501.86,501.57 C509.23,497.76 520.66,501.22 524.73,508.50 C526.80,512.21 526.97,513.76 526.98,529.75 L 527.00 547.00 L 514.00 547.00 L 514.00 532.45 C514.00,521.65 513.62,517.17 512.54,515.08 C510.13,510.42 503.33,509.58 499.45,513.45 C497.06,515.85 497.00,516.28 497.00,531.45 L 497.00 547.00 L 491.12 547.00 C485.35,547.00 485.24,546.95 484.62,543.88 ZM 437.00 490.06 L 413.50 489.50 L 413.20 483.25 L 412.90 477.00 L 438.81 477.00 C453.06,477.00 466.77,476.72 469.27,476.38 L 473.81 475.75 L 474.15 481.89 C474.34,485.27 474.35,488.48 474.17,489.02 C473.97,489.58 469.00,490.00 462.42,490.00 L 451.00 490.00 L 451.00 547.00 L 437.00 547.00 ZM 464.21 382.66 C460.03,380.34 450.00,364.49 450.00,360.21 C450.00,357.28 454.27,354.01 460.13,352.46 C469.61,349.95 489.19,348.44 493.91,349.86 C498.69,351.29 516.00,366.35 516.00,369.08 C516.00,371.16 515.03,371.56 503.00,374.54 C497.77,375.84 489.00,378.48 483.50,380.43 C472.92,384.16 467.95,384.74 464.21,382.66 ZM 598.61 544.64 C596.47,543.34 593.66,540.53 592.36,538.39 C590.13,534.70 590.01,533.59 590.01,517.25 L 590.00 500.00 L 603.00 500.00 L 603.00 530.15 L 605.92 533.08 C609.55,536.71 613.77,536.94 616.83,533.69 C618.87,531.51 619.00,530.41 619.00,515.69 L 619.00 500.00 L 633.00 500.00 L 633.00 547.00 L 626.00 547.00 C620.44,547.00 619.00,546.69 619.00,545.50 C619.00,543.66 618.22,543.66 615.00,545.50 C611.00,547.79 603.13,547.37 598.61,544.64 ZM 447.12 345.01 C445.27,344.56 442.67,343.13 441.36,341.81 C439.03,339.48 432.00,321.69 432.00,318.11 C432.00,314.46 435.20,313.00 443.08,313.04 C453.58,313.09 468.91,315.32 472.79,317.36 C474.95,318.50 478.15,322.25 482.04,328.23 C490.39,341.02 489.98,343.00 479.02,343.00 C473.37,343.00 461.53,344.10 453.00,345.43 C451.62,345.64 448.98,345.45 447.12,345.01 ZM 605.33 383.01 C604.97,382.92 604.62,382.83 604.28,382.75 C602.09,382.09 599.91,381.31 598.70,380.73 C596.94,379.88 593.57,378.39 591.20,377.42 C585.74,375.18 584.66,373.59 589.12,374.39 C592.43,374.98 592.42,374.96 588.59,373.49 C586.44,372.67 584.47,372.20 584.22,372.45 C583.97,372.70 583.08,372.23 582.25,371.39 C581.42,370.56 580.13,370.12 579.37,370.41 C578.62,370.70 578.00,370.53 578.00,370.04 C578.00,369.54 577.17,368.87 576.16,368.55 C572.42,367.36 557.38,355.28 558.39,354.28 C558.74,353.92 559.57,354.17 560.22,354.82 C560.87,355.47 561.87,356.00 562.45,356.00 C563.03,356.00 560.98,354.31 557.91,352.25 C550.73,347.44 547.60,344.70 541.75,338.12 C536.42,332.13 535.64,329.93 539.75,332.47 C541.26,333.41 539.04,330.87 534.82,326.84 C530.59,322.80 525.53,316.90 523.57,313.73 C519.53,307.21 519.33,306.53 521.65,307.42 C522.56,307.77 521.51,306.11 519.32,303.73 C513.79,297.73 505.82,284.00 507.86,284.00 C509.16,284.00 522.43,298.13 525.47,302.75 C525.68,303.07 525.90,303.38 526.11,303.68 C527.27,305.52 528.75,307.00 529.43,307.00 C530.13,307.00 534.48,311.35 539.10,316.68 C543.72,322.00 548.34,327.06 549.36,327.93 C552.61,330.67 563.32,341.27 569.12,347.50 L 569.13 347.50 C573.20,351.87 581.08,358.14 587.64,362.50 C590.47,364.40 593.05,365.95 595.00,366.86 C596.12,367.39 597.28,368.05 598.15,368.65 C598.67,369.11 598.99,369.54 598.99,369.86 C599.00,370.76 598.41,370.97 597.25,370.49 C594.18,369.23 591.48,368.68 592.20,369.47 C592.63,369.94 597.75,371.94 601.93,373.40 C594.60,371.23 592.64,371.75 599.00,374.83 C599.51,375.08 599.98,375.31 600.42,375.51 C600.19,375.43 599.96,375.36 599.75,375.28 C596.38,374.09 594.69,373.91 593.93,374.67 C593.17,375.43 595.73,376.48 602.68,378.27 C603.86,378.58 605.00,378.87 606.07,379.15 C601.02,377.93 596.25,376.89 594.50,376.64 L 590.50 376.06 L 596.00 379.10 C598.52,380.49 602.37,382.09 605.33,383.01 ZM 795.76 547.00 C791.78,545.81 786.00,542.03 786.00,540.63 C786.00,539.97 787.28,537.89 788.84,536.02 L 791.68 532.62 L 796.83 534.83 C802.43,537.24 805.79,537.00 808.51,533.99 C810.06,532.28 810.04,532.09 808.31,531.17 C807.29,530.62 804.11,529.75 801.24,529.23 C795.05,528.10 789.48,524.56 787.89,520.74 C787.26,519.22 786.97,515.65 787.25,512.80 C787.49,510.22 788.26,508.00 789.54,506.13 C790.02,505.58 790.59,505.02 791.29,504.37 C793.01,502.80 794.93,501.59 797.00,500.76 C798.60,500.19 800.39,499.76 802.37,499.46 C806.49,499.07 810.90,499.94 815.18,502.11 C820.47,504.78 820.68,505.79 816.76,509.70 L 813.27 513.19 L 810.02 511.51 C806.29,509.58 800.98,510.12 798.89,512.63 C797.06,514.83 799.64,516.58 806.88,518.07 C817.04,520.15 821.00,524.32 821.00,532.94 C821.00,537.89 818.94,541.31 813.64,545.15 C812.82,545.74 812.10,546.22 811.41,546.60 C809.23,547.31 806.84,547.77 804.42,547.92 C804.32,547.92 804.21,547.92 804.10,547.91 C801.02,547.87 797.27,547.46 795.76,547.00 ZM 763.18 545.32 C761.35,544.42 758.67,542.12 757.21,540.21 C754.73,536.96 754.54,535.94 754.17,523.93 L 753.77 511.11 L 750.63 510.80 C747.60,510.51 747.49,510.33 747.20,505.25 L 746.90 500.00 L 754.00 500.00 L 754.00 494.06 C754.00,490.79 754.48,487.82 755.07,487.46 C755.66,487.10 758.78,486.56 762.02,486.26 L 767.90 485.73 L 768.50 499.50 L 775.10 500.13 L 774.80 505.32 C774.51,510.36 774.41,510.51 771.25,510.81 L 768.00 511.13 L 768.00 522.01 C768.00,532.12 768.16,533.00 770.22,534.44 C771.44,535.30 773.67,536.00 775.16,536.00 C777.55,536.00 777.99,536.51 778.79,540.25 C779.51,543.65 779.38,544.75 778.15,545.75 C775.98,547.52 767.12,547.26 763.18,545.32 ZM 382.73 503.14 C382.87,503.23 383.01,503.32 383.14,503.40 C386.38,505.54 387.96,507.46 388.80,512.41 C389.36,515.73 389.59,520.42 389.77,527.42 C389.79,528.01 389.80,528.62 389.82,529.25 L 390.22 547.00 L 383.11 547.00 C377.63,546.99 377.00,546.75 377.00,545.00 C377.00,542.64 375.15,542.42 372.44,544.47 C370.15,546.20 360.43,546.49 356.39,544.96 C353.87,544.00 349.00,539.64 349.00,538.34 C349.00,538.04 350.56,539.16 352.47,540.84 C355.37,543.39 356.51,543.79 359.47,543.31 C361.77,542.94 363.00,543.13 363.00,543.87 C363.00,544.49 364.03,545.00 365.28,545.00 C368.89,545.00 368.72,540.80 365.03,539.18 C359.44,536.70 356.99,534.07 357.10,530.68 L 357.20 527.50 L 357.99 530.81 C359.19,535.87 361.42,537.01 369.75,536.80 C373.74,536.69 377.00,536.22 377.00,535.75 C377.00,535.27 376.44,535.20 375.75,535.59 C374.75,536.15 374.75,536.02 375.75,534.95 C377.48,533.09 377.32,527.18 375.49,525.35 C374.65,524.51 374.18,522.78 374.43,521.42 C374.84,519.18 374.56,519.00 370.68,518.98 C367.75,518.97 366.93,518.69 367.95,518.05 C369.01,517.38 368.33,517.02 365.45,516.72 C363.28,516.49 363.98,516.39 367.00,516.51 C370.02,516.62 373.51,517.06 374.75,517.48 C378.10,518.60 377.74,514.73 374.25,511.98 C371.91,510.13 370.60,509.88 365.50,510.30 C362.20,510.57 358.49,511.03 357.25,511.34 C356.01,511.64 355.00,511.48 355.00,510.98 C355.00,510.48 357.24,509.77 359.98,509.41 C362.72,509.04 364.72,508.35 364.42,507.87 C363.45,506.29 374.74,506.89 376.36,508.50 C378.92,511.06 381.65,509.85 380.43,506.69 C379.65,504.64 376.45,503.77 370.25,503.92 C366.92,504.01 365.00,503.64 365.00,502.92 C365.00,502.30 364.33,502.05 363.50,502.36 C362.67,502.68 362.00,502.53 362.00,502.03 C362.00,501.41 363.78,500.87 366.16,500.52 C367.03,500.51 367.97,500.50 369.00,500.50 C372.88,500.50 375.33,500.57 377.18,500.86 C379.16,501.41 381.37,502.30 382.73,503.14 ZM 461.50 308.46 C460.95,308.23 454.30,307.18 446.73,306.12 C434.98,304.49 432.44,303.81 429.41,301.50 C427.45,300.01 425.71,298.27 425.54,297.64 C425.37,297.01 424.02,292.31 422.55,287.18 C421.92,285.00 421.42,283.15 421.11,281.60 C421.44,283.11 421.95,284.96 422.61,287.18 C424.11,292.31 425.78,297.07 426.30,297.76 C427.03,298.71 427.82,298.35 429.63,296.26 C430.93,294.74 432.00,293.05 432.01,292.50 C432.01,291.95 433.82,288.67 436.01,285.20 L 440.01 278.90 L 436.32 277.36 C435.68,277.09 434.84,276.81 433.91,276.55 C435.64,276.97 437.57,277.46 439.71,278.01 C457.13,282.54 458.54,283.54 464.35,295.47 C467.89,302.73 468.95,305.86 468.25,306.97 C467.32,308.46 463.50,309.31 461.50,308.46 ZM 528.00 350.13 C527.17,349.67 523.12,348.50 519.00,347.53 C509.15,345.22 503.09,343.12 499.90,340.89 C497.18,338.99 487.00,324.24 487.00,322.19 C487.00,321.53 488.35,321.00 490.04,321.00 C494.10,321.00 511.60,327.60 516.00,330.79 C520.14,333.79 532.50,347.68 532.50,349.33 C532.50,350.78 529.97,351.23 528.00,350.13 ZM 506.50 322.78 C505.40,322.14 500.08,319.94 494.69,317.88 C489.29,315.82 483.42,313.03 481.64,311.67 C478.45,309.24 470.00,294.63 470.00,291.55 C470.00,288.86 474.39,289.80 483.75,294.48 C494.92,300.07 499.70,304.36 505.99,314.40 C511.56,323.32 511.72,325.80 506.50,322.78 ZM 528.04 368.03 C524.35,366.17 521.15,363.50 516.53,359.21 C511.24,354.28 509.99,351.54 512.99,350.86 C513.76,350.73 514.78,350.71 516.04,350.79 C517.18,350.87 518.39,351.00 519.63,351.18 C522.02,351.58 524.94,352.22 528.40,353.10 C529.42,353.36 530.39,353.63 531.34,353.91 C534.21,354.81 536.97,355.84 539.41,356.93 C541.52,357.92 543.57,359.06 545.71,360.42 C546.42,360.94 547.01,361.45 547.46,361.96 C548.54,363.15 552.26,366.15 555.71,368.61 C559.47,371.29 561.60,373.20 561.96,374.17 C561.84,374.77 561.11,374.99 559.75,374.63 C558.51,374.29 553.67,373.51 549.00,372.89 C546.71,372.58 544.66,372.29 542.80,372.01 C535.81,370.78 531.58,369.74 528.04,368.03 ZM 566.65 532.62 C570.98,527.59 570.67,517.73 566.05,513.54 C563.63,511.35 556.45,510.46 552.75,511.89 C544.26,515.17 543.90,529.90 552.19,534.70 C556.00,536.91 563.94,535.77 566.65,532.62 ZM 480.50 289.36 C473.90,285.78 467.33,281.65 465.91,280.17 C463.55,277.74 457.00,264.37 457.00,261.99 C457.00,258.72 472.14,266.17 481.16,273.87 C485.17,277.30 493.40,291.90 492.81,294.52 C492.59,295.46 488.80,293.86 480.50,289.36 ZM 671.92 533.41 C674.82,530.98 675.00,530.41 675.00,523.83 C675.00,517.38 674.77,516.61 671.95,513.80 C669.16,511.01 668.48,510.80 663.76,511.25 C659.59,511.65 658.09,512.34 655.81,514.89 C650.87,520.42 652.43,530.32 658.87,534.32 C662.91,536.82 668.31,536.45 671.92,533.41 ZM 519.83 328.10 C517.82,326.12 515.85,323.84 513.55,320.80 C513.03,320.07 512.51,319.29 511.97,318.46 C508.25,312.75 507.16,310.00 508.62,310.00 C509.71,310.00 522.34,319.29 526.71,323.31 C531.60,327.81 542.47,340.86 541.85,341.48 C541.62,341.72 537.17,339.42 531.96,336.39 C526.43,333.16 522.78,330.75 519.83,328.10 ZM 502.77 301.70 C500.96,299.34 498.84,296.25 496.96,293.30 C490.70,282.45 491.73,281.33 500.70,288.89 C503.89,291.57 508.36,295.74 510.63,298.14 C515.04,302.79 523.57,315.77 522.75,316.58 C522.48,316.85 517.70,313.67 512.13,309.50 C507.54,306.07 504.85,303.92 502.77,301.70 ZM 481.00 260.00 C481.00,258.21 482.69,258.88 487.18,262.64 C488.58,263.86 490.23,265.39 492.17,267.25 C499.34,274.13 501.36,276.81 504.38,283.39 C506.37,287.73 508.00,291.44 508.00,291.64 C508.00,292.79 505.92,291.42 501.50,287.34 C498.75,284.80 494.40,280.77 491.82,278.37 C490.03,276.70 487.76,273.60 485.75,270.38 C483.15,265.98 481.00,261.51 481.00,260.00 ZM 554.64 359.91 C550.26,357.95 546.86,356.25 543.96,354.48 C539.84,351.63 535.45,347.81 532.16,344.39 C523.72,335.01 525.44,334.57 538.96,342.64 C544.16,345.74 552.26,351.66 556.95,355.80 C561.65,359.94 565.69,363.48 565.92,363.67 C567.71,365.10 561.97,363.19 554.64,359.91 ZM 582.50 379.55 C577.37,378.38 575.19,377.73 569.79,374.99 C567.74,373.81 565.36,372.26 562.07,370.05 C548.46,360.90 548.97,359.52 563.74,365.61 C584.53,374.19 595.56,381.54 588.16,380.89 C586.31,380.43 584.29,379.95 582.50,379.55 ZM 445.19 391.37 C444.78,391.12 444.22,391.00 443.50,391.00 C442.12,391.00 441.00,390.61 441.00,390.14 C441.00,389.67 439.35,387.13 437.34,384.50 C432.07,377.59 428.68,370.98 428.50,367.25 C428.31,363.39 428.57,363.29 431.10,366.25 C432.32,367.67 432.93,367.95 432.76,367.00 C432.62,366.17 431.69,364.90 430.71,364.16 C429.21,363.05 428.64,363.05 427.27,364.16 C426.09,365.12 425.83,365.14 426.37,364.25 C427.97,361.58 420.27,363.13 403.20,368.91 C422.44,362.33 428.01,361.09 430.69,362.79 C431.35,363.20 435.10,369.96 439.04,377.80 C442.56,384.82 444.42,388.82 445.19,391.37 ZM 468.50 262.02 C466.46,260.70 464.68,259.53 463.12,258.48 C464.60,259.19 464.95,258.73 465.43,257.25 C466.01,255.45 470.74,252.72 471.97,253.48 C473.86,254.65 472.34,250.75 470.08,248.64 C469.38,247.98 468.41,247.18 467.27,246.31 C468.51,247.25 469.58,248.13 470.39,248.86 C473.54,251.74 480.31,265.22 479.81,267.63 C479.58,268.73 476.54,267.22 468.50,262.02 ZM 445.00 273.98 C443.32,273.41 440.58,272.52 437.63,271.60 C443.46,273.17 446.00,273.29 446.00,272.07 C446.00,270.18 449.24,267.94 451.11,268.53 C452.15,268.86 453.00,268.99 453.00,268.82 C453.00,268.74 452.99,268.65 452.97,268.54 C454.09,271.79 454.82,274.49 454.51,274.99 C453.64,276.39 451.41,276.15 445.00,273.98 ZM 614.97 380.04 C616.78,378.89 615.76,378.47 609.00,377.56 C608.41,377.48 607.73,377.36 607.00,377.22 C609.99,377.48 614.41,377.50 622.25,377.50 C626.27,377.50 629.99,377.55 632.97,377.63 C632.02,377.67 630.95,377.72 629.76,377.77 C623.64,378.07 620.26,378.61 620.65,379.24 C620.89,379.63 624.13,379.72 627.89,379.63 C619.12,380.25 616.26,380.72 620.25,380.88 C621.76,380.95 623.00,381.45 623.00,382.00 C623.00,383.26 622.91,383.36 613.09,380.89 C613.44,380.86 614.24,380.50 614.97,380.04 ZM 544.00 328.17 C544.00,327.72 542.81,326.26 541.36,324.92 C539.91,323.59 537.43,320.73 535.84,318.56 C534.25,316.40 532.09,314.56 531.04,314.48 C529.67,314.38 531.02,316.39 535.82,321.62 C542.19,328.56 544.00,330.01 544.00,328.17 ZM 562.00 349.00 C562.00,348.45 561.59,348.00 561.08,348.00 C560.57,348.00 557.42,345.26 554.08,341.92 C550.74,338.58 548.00,336.35 548.00,336.98 C548.00,337.61 547.44,337.83 546.75,337.48 C546.06,337.14 546.85,337.89 548.50,339.15 C550.15,340.42 553.53,343.37 556.00,345.70 C560.57,350.02 562.00,350.80 562.00,349.00 ZM 383.01 539.99 C383.92,538.27 383.70,537.84 381.48,536.99 L 381.14 536.86 C379.44,536.22 378.76,535.96 378.35,536.19 C378.05,536.36 377.91,536.80 377.62,537.55 C377.29,538.41 377.44,538.85 377.94,538.54 C378.44,538.23 379.14,538.88 379.50,539.99 C380.31,542.55 381.63,542.55 383.01,539.99 ZM 608.19 372.52 C610.76,373.08 613.80,373.83 615.97,374.44 C618.75,375.24 623.75,375.73 629.25,375.92 C629.48,375.94 629.71,375.95 629.93,375.96 C624.66,375.89 619.92,375.59 617.50,375.03 C615.00,374.45 613.15,374.45 612.55,375.05 C611.95,375.65 612.32,376.03 613.55,376.08 C614.62,376.12 614.98,376.37 614.34,376.63 C613.74,376.88 610.30,376.09 606.45,374.85 C606.83,374.94 607.10,374.99 607.25,375.00 C607.66,375.00 608.00,374.28 608.00,373.39 C608.00,372.99 608.06,372.70 608.19,372.52 ZM 592.70 380.90 C593.49,380.11 594.33,380.10 595.65,380.87 C597.27,381.81 597.14,381.94 594.55,381.97 C592.40,381.99 591.90,381.70 592.70,380.90 ZM 385.96 444.48 C387.60,443.27 389.29,441.96 391.00,440.56 C393.15,438.80 396.37,436.27 400.03,433.43 C398.10,434.96 396.33,436.38 394.85,437.61 C391.79,440.13 388.79,442.45 385.96,444.48 ZM 428.71 275.44 C428.30,275.38 427.91,275.33 427.53,275.29 C425.58,275.09 424.09,275.02 423.00,275.20 C424.27,274.88 426.12,274.99 428.71,275.44 ZM 414.23 256.77 C413.83,255.73 413.46,254.60 413.10,253.34 C411.72,248.66 411.00,246.09 411.13,244.69 C411.00,246.09 411.74,248.66 413.13,253.34 C413.51,254.61 413.87,255.74 414.23,256.77 ZM 422.35 416.52 C425.53,414.13 428.25,412.05 430.59,410.22 C428.12,412.19 425.37,414.29 422.35,416.52 ZM 451.49 247.14 C450.87,245.97 450.29,244.68 449.66,243.18 C447.93,239.07 447.12,237.01 447.15,235.98 C447.12,237.01 447.93,239.07 449.67,243.18 C450.30,244.67 450.90,245.98 451.49,247.14 ZM 371.52 382.27 C366.52,385.52 363.72,388.85 361.84,393.00 C363.72,388.83 366.49,385.53 371.52,382.27 ZM 447.45 255.98 C448.09,256.89 448.94,258.57 449.83,260.57 C448.93,258.61 448.03,256.84 447.45,255.98 ZM 369.68 452.98 C369.72,452.99 369.76,452.99 369.81,452.99 C370.48,452.99 371.32,452.81 372.30,452.48 C371.33,452.82 370.52,453.00 369.90,453.00 C369.83,453.00 369.75,452.99 369.68,452.98 ZM 458.17 240.01 C453.83,237.24 449.86,235.00 448.89,235.00 C449.87,235.00 453.81,237.22 458.17,240.01 ZM 444.72 396.53 C445.01,396.00 445.25,395.52 445.44,395.06 C445.29,395.50 445.05,395.99 444.72,396.53 ZM 618.47 384.83 C618.41,384.83 618.34,384.82 618.27,384.82 C618.72,384.84 619.16,384.86 619.60,384.87 C619.23,384.86 618.85,384.85 618.47,384.83 Z" fill="rgb(198,63,164)"/>
<path d="M 270.25 604.40 C269.35,603.99 269.00,600.38 269.00,591.42 L 269.00 579.00 L 275.57 579.00 C283.16,579.00 285.40,579.94 287.49,583.98 C290.34,589.49 288.79,598.26 284.24,602.31 C282.20,604.13 272.77,605.53 270.25,604.40 ZM 283.24 598.95 C285.50,596.16 285.62,587.34 283.44,584.22 C282.19,582.44 280.92,582.00 276.94,582.00 L 272.00 582.00 L 272.00 591.33 C272.00,596.47 272.34,601.01 272.75,601.43 C274.19,602.88 281.44,601.17 283.24,598.95 ZM 400.83 603.51 C397.11,601.44 395.40,595.93 396.92,590.89 C398.30,586.28 400.36,585.00 406.41,585.00 C410.25,585.00 411.23,585.42 412.73,587.71 C415.42,591.81 415.07,598.39 412.00,601.45 C408.83,604.62 404.31,605.45 400.83,603.51 ZM 408.78 600.44 C410.50,599.24 411.00,597.90 411.00,594.51 C411.00,587.74 406.22,584.68 401.83,588.65 C399.08,591.15 399.32,598.41 402.22,600.44 C403.44,601.30 404.92,602.00 405.50,602.00 C406.08,602.00 407.56,601.30 408.78,600.44 ZM 486.38 601.00 C482.92,595.77 480.00,595.58 480.00,600.58 C480.00,603.01 479.59,604.03 478.75,603.75 C477.87,603.46 477.50,600.56 477.50,593.92 L 477.50 584.50 L 481.06 584.20 C489.23,583.51 493.29,588.41 489.16,593.99 C487.08,596.81 487.08,596.83 489.04,599.32 C491.13,601.98 491.65,605.00 490.01,605.00 C489.47,605.00 487.84,603.20 486.38,601.00 ZM 485.40 593.69 C486.50,592.89 487.06,591.45 486.84,589.94 C486.57,588.01 485.83,587.44 483.25,587.19 C480.16,586.89 480.00,587.04 480.00,590.27 C480.00,595.18 481.80,596.33 485.40,593.69 ZM 505.25 603.99 C504.01,603.48 503.00,602.37 503.00,601.53 C503.00,599.69 504.05,599.61 507.49,601.18 C509.61,602.14 510.36,602.07 511.66,600.77 C513.67,598.76 512.84,597.47 507.93,594.97 C504.78,593.36 504.00,592.41 504.00,590.18 C504.00,588.65 504.54,586.86 505.20,586.20 C506.92,584.48 515.00,584.62 515.00,586.36 C515.00,587.29 513.81,587.69 511.28,587.61 C505.84,587.45 505.65,590.27 510.92,592.96 C515.83,595.46 517.26,599.21 514.38,602.03 C512.00,604.36 508.16,605.19 505.25,603.99 ZM 612.67 604.33 C612.30,603.97 612.00,598.12 612.00,591.33 L 612.00 579.00 L 619.08 579.00 C625.57,579.00 626.40,579.24 629.08,581.92 C631.54,584.39 632.00,585.64 632.00,589.96 C632.00,597.20 629.85,601.75 625.57,603.54 C621.99,605.03 613.87,605.53 612.67,604.33 ZM 624.06 600.97 C627.16,599.31 629.29,594.18 628.69,589.76 C627.95,584.22 625.60,582.00 620.48,582.00 L 616.27 582.00 L 615.64 586.64 C614.65,593.81 614.88,599.48 616.20,600.80 C617.67,602.27 621.47,602.35 624.06,600.97 ZM 669.75 604.31 C668.79,604.06 668.00,602.94 668.00,601.82 C668.00,600.28 668.42,599.96 669.75,600.51 C673.57,602.08 674.70,602.07 676.04,600.45 C677.53,598.65 677.49,598.60 670.55,593.70 C667.48,591.54 667.16,587.52 669.93,586.04 C672.94,584.43 680.00,584.71 680.00,586.44 C680.00,587.50 678.87,587.83 675.75,587.69 C670.25,587.44 670.17,589.26 675.50,592.87 C678.53,594.92 679.57,596.35 679.81,598.73 C680.07,601.38 679.63,602.14 677.11,603.44 C674.07,605.01 672.95,605.15 669.75,604.31 ZM 713.28 603.03 C709.64,600.81 708.48,597.61 709.35,592.20 C710.18,587.01 713.04,585.00 719.61,585.00 C723.87,585.00 725.00,585.33 725.00,586.59 C725.00,587.88 724.27,588.05 721.04,587.51 C717.63,586.93 716.71,587.19 714.54,589.37 C711.84,592.06 711.35,594.91 713.02,598.04 C715.49,602.66 722.00,602.94 722.00,598.43 C722.00,596.94 722.58,596.00 723.50,596.00 C724.58,596.00 725.00,597.10 725.00,599.88 C725.00,603.41 724.73,603.80 721.88,604.38 C717.36,605.28 716.84,605.20 713.28,603.03 ZM 302.00 594.50 L 302.00 585.00 L 308.08 585.00 C312.44,585.00 314.05,585.35 313.76,586.22 C313.50,587.00 311.82,587.34 309.18,587.15 C305.11,586.86 305.00,586.93 305.00,589.92 C305.00,592.77 305.26,593.00 308.50,593.00 C310.94,593.00 312.00,593.45 312.00,594.50 C312.00,595.55 310.94,596.00 308.43,596.00 C305.13,596.00 304.89,596.20 305.18,598.75 C305.47,601.21 305.95,601.53 309.75,601.81 C316.20,602.27 314.83,604.00 308.00,604.00 L 302.00 604.00 L 302.00 594.50 ZM 329.50 602.25 C328.01,598.58 324.00,586.61 324.00,585.82 C324.00,585.37 324.58,585.00 325.29,585.00 C325.99,585.00 327.66,588.15 329.00,592.00 C330.34,595.85 331.74,599.00 332.13,599.00 C332.51,599.00 334.03,595.85 335.50,592.00 C337.19,587.58 338.73,585.00 339.69,585.00 C340.74,585.00 341.00,585.54 340.51,586.75 C340.12,587.71 338.46,591.99 336.82,596.25 C334.62,601.95 333.35,604.00 332.02,604.00 C331.03,604.00 329.89,603.21 329.50,602.25 ZM 353.00 594.50 L 353.00 585.00 L 359.00 585.00 C365.83,585.00 367.20,586.73 360.75,587.19 C356.97,587.47 356.50,587.77 356.50,590.00 C356.50,592.16 357.00,592.54 360.20,592.81 C365.11,593.22 364.35,596.00 359.33,596.00 C356.14,596.00 355.89,596.22 356.18,598.75 C356.47,601.21 356.95,601.53 360.75,601.81 C367.20,602.27 365.83,604.00 359.00,604.00 L 353.00 604.00 L 353.00 594.50 ZM 377.00 594.50 C377.00,586.12 377.21,585.00 378.75,585.00 C380.28,585.00 380.50,586.06 380.50,593.25 L 380.50 601.50 L 384.25 601.81 C390.05,602.29 388.68,604.00 382.50,604.00 L 377.00 604.00 L 377.00 594.50 ZM 427.21 594.25 L 427.50 584.50 L 432.17 584.56 C437.87,584.63 440.00,586.24 440.00,590.47 C440.00,594.26 437.66,596.72 433.18,597.61 C430.49,598.15 430.00,598.69 430.00,601.12 C430.00,603.04 429.49,604.00 428.46,604.00 C427.17,604.00 426.97,602.48 427.21,594.25 ZM 435.95 593.56 C436.61,592.76 437.01,591.07 436.83,589.81 C436.57,588.02 435.77,587.43 433.25,587.19 C430.16,586.89 430.00,587.04 430.00,590.27 C430.00,592.14 430.30,593.97 430.67,594.33 C431.82,595.49 434.71,595.06 435.95,593.56 ZM 453.00 594.50 L 453.00 585.00 L 459.00 585.00 C465.83,585.00 467.20,586.73 460.75,587.19 C456.97,587.47 456.50,587.77 456.50,590.00 C456.50,592.17 457.00,592.54 460.31,592.81 C465.21,593.22 464.70,595.39 459.61,595.81 C456.21,596.10 455.91,596.37 456.19,598.81 C456.47,601.20 456.97,601.53 460.75,601.81 C467.20,602.27 465.83,604.00 459.00,604.00 L 453.00 604.00 L 453.00 594.50 ZM 543.00 591.50 L 543.00 579.00 L 548.50 579.00 C556.54,579.00 559.59,582.42 556.87,588.39 C555.95,590.41 556.04,591.18 557.37,592.51 C559.61,594.75 559.42,599.58 557.00,602.00 C555.44,603.56 553.67,604.00 549.00,604.00 L 543.00 604.00 L 543.00 591.50 ZM 555.17 598.53 C556.69,595.18 554.80,593.00 550.38,593.00 C547.10,593.00 547.00,593.12 547.00,597.00 C547.00,600.91 547.08,601.00 550.52,601.00 C553.30,601.00 554.28,600.48 555.17,598.53 ZM 552.95 588.56 C553.61,587.76 554.01,586.07 553.83,584.81 C553.57,583.02 552.77,582.43 550.25,582.19 C547.07,581.88 547.00,581.95 547.00,585.94 C547.00,589.55 547.26,590.00 549.38,590.00 C550.69,590.00 552.29,589.35 552.95,588.56 ZM 575.00 600.06 C575.00,597.34 573.97,594.14 571.90,590.48 C569.06,585.45 568.97,585.00 570.75,585.00 C572.05,585.00 573.29,586.32 574.50,589.00 C575.49,591.20 576.60,593.00 576.97,593.00 C577.33,593.00 578.64,591.20 579.88,589.00 C581.12,586.80 582.77,585.00 583.56,585.00 C585.51,585.00 585.45,585.23 581.85,591.61 C580.12,594.68 578.66,598.61 578.60,600.33 C578.53,602.48 577.95,603.58 576.75,603.81 C575.31,604.09 575.00,603.41 575.00,600.06 ZM 645.00 594.50 L 645.00 585.00 L 651.08 585.00 C655.32,585.00 657.05,585.36 656.77,586.18 C656.56,586.83 654.61,587.40 652.44,587.43 C648.92,587.49 648.50,587.77 648.50,590.00 C648.50,592.16 649.00,592.54 652.20,592.81 C657.11,593.22 656.35,596.00 651.33,596.00 C648.14,596.00 647.89,596.22 648.18,598.75 C648.47,601.21 648.95,601.53 652.75,601.81 C659.20,602.27 657.83,604.00 651.00,604.00 L 645.00 604.00 L 645.00 594.50 ZM 693.00 594.50 C693.00,586.12 693.21,585.00 694.75,585.00 C696.32,585.00 696.47,585.99 696.18,594.50 C695.93,601.93 695.55,604.00 694.43,604.00 C693.29,604.00 693.00,602.08 693.00,594.50 ZM 739.00 594.50 C739.00,585.86 739.17,585.00 740.88,585.00 C742.11,585.00 744.29,587.35 747.13,591.72 L 751.50 598.44 L 752.00 591.55 C752.31,587.31 752.98,584.50 753.75,584.25 C754.69,583.93 755.00,586.30 755.00,593.92 C755.00,603.14 754.84,604.00 753.11,604.00 C751.90,604.00 749.84,601.86 747.36,598.01 C745.24,594.71 743.16,592.01 742.75,592.01 C742.34,592.00 742.00,594.70 742.00,598.00 C742.00,602.67 741.67,604.00 740.50,604.00 C739.27,604.00 739.00,602.28 739.00,594.50 ZM 365.37 450.64 C362.35,448.04 362.12,446.22 360.46,411.50 C359.85,398.71 359.97,397.11 361.83,393.00 C366.00,383.81 374.71,378.65 401.72,369.41 C419.82,363.22 428.02,361.50 426.37,364.25 C425.83,365.14 426.09,365.12 427.27,364.16 C428.64,363.05 429.21,363.05 430.71,364.16 C431.69,364.90 432.62,366.17 432.76,367.00 C432.93,367.95 432.32,367.67 431.10,366.25 C428.57,363.29 428.31,363.39 428.50,367.25 C428.68,370.98 432.07,377.59 437.34,384.50 C439.35,387.13 441.00,389.67 441.00,390.14 C441.00,390.61 442.12,391.00 443.50,391.00 C446.56,391.00 446.77,393.22 444.14,397.54 C441.70,401.55 435.82,406.51 416.50,420.90 C407.70,427.45 396.23,436.30 391.00,440.56 C381.89,447.99 373.41,452.97 369.81,452.99 C368.87,453.00 366.88,451.94 365.37,450.64 ZM 607.00 383.48 C603.97,382.74 599.03,380.77 596.00,379.10 L 590.50 376.06 L 594.50 376.64 C596.70,376.95 603.67,378.52 609.98,380.11 C622.90,383.36 623.00,383.38 623.00,382.00 C623.00,381.45 621.76,380.95 620.25,380.88 C615.92,380.70 619.65,380.17 630.25,379.46 C635.61,379.11 640.00,378.52 640.00,378.16 C640.00,377.80 632.01,377.50 622.25,377.50 C605.06,377.50 604.33,377.42 599.00,374.83 C591.69,371.29 595.37,371.13 605.57,374.55 C609.75,375.96 613.70,376.89 614.34,376.63 C614.98,376.37 614.62,376.12 613.55,376.08 C612.32,376.03 611.95,375.65 612.55,375.05 C613.15,374.45 615.00,374.45 617.50,375.03 C623.85,376.50 646.16,376.20 652.20,374.56 C664.95,371.10 672.15,368.91 676.94,367.02 C682.81,364.71 683.36,364.61 682.49,366.02 C681.50,367.62 671.13,372.56 664.50,374.60 C661.20,375.62 658.24,376.81 657.92,377.26 C656.73,378.93 644.27,382.12 636.72,382.70 C632.44,383.02 628.70,383.67 628.41,384.14 C627.60,385.45 613.20,385.00 607.00,383.48 ZM 362.99 361.23 L 359.22 357.46 L 358.64 346.98 C356.99,317.39 356.91,319.13 360.03,315.65 L 362.86 312.50 L 386.45 312.73 C416.29,313.03 416.84,313.25 420.51,326.50 C425.44,344.32 425.48,344.62 423.62,347.46 C420.20,352.68 416.78,354.05 389.50,361.10 C370.14,366.10 367.88,366.11 362.99,361.23 ZM 382.03 301.86 C360.83,300.51 355.88,296.98 354.61,282.32 C354.24,278.02 353.68,273.07 353.37,271.33 C352.88,268.54 353.18,267.96 355.85,266.58 C359.65,264.61 365.30,264.60 380.00,266.51 C406.03,269.90 406.93,270.47 410.52,286.00 C411.86,291.77 412.70,297.29 412.40,298.26 C411.54,301.06 406.60,303.01 400.80,302.86 C397.88,302.78 389.44,302.33 382.03,301.86 ZM 426.30 297.76 C425.78,297.07 424.11,292.31 422.61,287.18 C419.24,275.72 419.74,274.49 427.53,275.29 C430.33,275.58 434.29,276.51 436.32,277.36 L 440.01 278.90 L 436.01 285.20 C433.82,288.67 432.01,291.95 432.01,292.50 C432.00,293.05 430.93,294.74 429.63,296.26 C427.82,298.35 427.03,298.71 426.30,297.76 ZM 432.50 270.11 C418.15,265.70 416.35,264.15 413.13,253.34 C410.13,243.27 410.19,243.00 415.28,243.00 C422.16,243.00 443.53,251.45 447.17,255.60 C448.48,257.09 453.00,267.34 453.00,268.82 C453.00,268.99 452.15,268.86 451.11,268.53 C449.24,267.94 446.00,270.18 446.00,272.07 C446.00,273.61 441.99,273.02 432.50,270.11 ZM 393.50 261.43 C392.95,261.20 384.80,260.17 375.38,259.15 C353.29,256.75 351.31,255.87 348.29,247.05 C346.77,242.61 346.40,240.23 347.09,239.39 C349.79,236.14 371.12,234.47 386.21,236.33 C395.66,237.49 398.91,239.91 401.18,247.50 C403.27,254.50 403.49,259.11 401.80,260.80 C400.66,261.94 395.64,262.32 393.50,261.43 ZM 460.00 256.56 C454.91,253.18 452.67,250.28 449.67,243.18 C446.49,235.67 446.43,235.00 448.89,235.00 C450.89,235.00 465.68,244.52 470.08,248.64 C472.34,250.75 473.86,254.65 471.97,253.48 C470.74,252.72 466.01,255.45 465.43,257.25 C464.72,259.46 464.28,259.40 460.00,256.56 ZM 437.50 245.14 C435.30,244.15 429.23,241.86 424.00,240.06 C412.91,236.23 410.08,234.88 407.88,232.35 C405.87,230.06 401.89,219.44 402.72,218.61 C406.19,215.14 434.58,224.55 438.30,230.40 C440.58,233.98 444.23,244.82 443.54,245.94 C442.67,247.34 442.21,247.28 437.50,245.14 ZM 339.71 230.25 C336.56,226.93 336.73,226.64 343.75,223.10 C354.64,217.62 381.53,213.23 388.20,215.85 C391.35,217.09 393.67,221.10 394.60,226.90 C395.38,231.77 396.80,231.37 378.50,231.47 C370.80,231.51 359.55,231.92 353.50,232.37 L 342.50 233.19 L 339.71 230.25 Z" fill="rgb(236,175,141)"/>
</g>
</svg>